<mxfile host="Electron" modified="2023-12-07T16:40:06.461Z" agent="Mozilla/5.0 (Windows NT 10.0; Win64; x64) AppleWebKit/537.36 (KHTML, like Gecko) draw.io/22.1.2 Chrome/114.0.5735.289 Electron/25.9.4 Safari/537.36" etag="0BsyOx33X5vgLVDpskI8" version="22.1.2" type="device">
  <diagram name="Page-1" id="Yc_UYlgMCtUo6k1YCmHW">
    <mxGraphModel dx="6605" dy="5665" grid="1" gridSize="10" guides="1" tooltips="1" connect="1" arrows="1" fold="1" page="1" pageScale="1" pageWidth="1100" pageHeight="850" math="0" shadow="0">
      <root>
        <mxCell id="0" />
        <mxCell id="1" parent="0" />
        <mxCell id="EL7Et4fL0F2UAVuM8DYT-122" value="" style="rounded=0;whiteSpace=wrap;html=1;fillColor=#f5f5f5;fontColor=#333333;strokeColor=#666666;" parent="1" vertex="1">
          <mxGeometry x="-1050" y="-790" width="2890" height="1910" as="geometry" />
        </mxCell>
        <mxCell id="EL7Et4fL0F2UAVuM8DYT-1" value="" style="rounded=0;whiteSpace=wrap;html=1;fillColor=#dae8fc;strokeColor=#6c8ebf;strokeWidth=4;" parent="1" vertex="1">
          <mxGeometry x="-865" y="-335" width="720" height="790" as="geometry" />
        </mxCell>
        <mxCell id="EL7Et4fL0F2UAVuM8DYT-2" value="CcspEthAgent" style="text;html=1;strokeColor=#6c8ebf;fillColor=#dae8fc;align=center;verticalAlign=middle;whiteSpace=wrap;rounded=0;fontStyle=1;fontSize=15;" parent="1" vertex="1">
          <mxGeometry x="-265" y="-335" width="120" height="30" as="geometry" />
        </mxCell>
        <mxCell id="EL7Et4fL0F2UAVuM8DYT-5" value="libhal_ethsw.so" style="text;html=1;strokeColor=default;fillColor=none;align=center;verticalAlign=middle;whiteSpace=wrap;rounded=0;" parent="1" vertex="1">
          <mxGeometry x="-970" y="-45" width="90" height="30" as="geometry" />
        </mxCell>
        <mxCell id="EL7Et4fL0F2UAVuM8DYT-6" value="eth0" style="rounded=1;whiteSpace=wrap;html=1;" parent="1" vertex="1">
          <mxGeometry x="-955" y="15" width="60" height="20" as="geometry" />
        </mxCell>
        <mxCell id="EL7Et4fL0F2UAVuM8DYT-8" value="" style="rounded=0;whiteSpace=wrap;html=1;fillColor=#d5e8d4;strokeColor=#82b366;strokeWidth=4;" parent="1" vertex="1">
          <mxGeometry x="-10" y="-680" width="610" height="1570" as="geometry" />
        </mxCell>
        <mxCell id="EL7Et4fL0F2UAVuM8DYT-7" value="X_RDK_WanManager.CPEInterface.1.Phy.Status" style="shape=parallelogram;perimeter=parallelogramPerimeter;whiteSpace=wrap;html=1;fixedSize=1;fillColor=#d5e8d4;strokeColor=#82b366;strokeWidth=3;" parent="1" vertex="1">
          <mxGeometry x="-280" y="-442.5" width="300" height="25" as="geometry" />
        </mxCell>
        <mxCell id="EL7Et4fL0F2UAVuM8DYT-9" value="wanmanager" style="text;html=1;strokeColor=#82b366;fillColor=#d5e8d4;align=center;verticalAlign=middle;whiteSpace=wrap;rounded=0;fontStyle=1;fontSize=15;" parent="1" vertex="1">
          <mxGeometry x="-10" y="-680" width="110" height="30" as="geometry" />
        </mxCell>
        <mxCell id="EL7Et4fL0F2UAVuM8DYT-10" value="Ethernet.X_RDK_Interface.1.WanStatus" style="shape=parallelogram;perimeter=parallelogramPerimeter;whiteSpace=wrap;html=1;fixedSize=1;fillColor=#dae8fc;strokeColor=#6c8ebf;strokeWidth=3;" parent="1" vertex="1">
          <mxGeometry x="-420" y="435" width="270" height="30" as="geometry" />
        </mxCell>
        <mxCell id="EL7Et4fL0F2UAVuM8DYT-12" value="EthWanLinkDown_callback()" style="text;html=1;align=center;verticalAlign=middle;resizable=0;points=[];autosize=1;strokeColor=#6c8ebf;fillColor=#dae8fc;" parent="1" vertex="1">
          <mxGeometry x="-755" y="-75" width="180" height="30" as="geometry" />
        </mxCell>
        <mxCell id="EL7Et4fL0F2UAVuM8DYT-13" value="EthWanLinkUp_callback()" style="text;html=1;align=center;verticalAlign=middle;resizable=0;points=[];autosize=1;strokeColor=#6c8ebf;fillColor=#dae8fc;" parent="1" vertex="1">
          <mxGeometry x="-755" y="-45" width="160" height="30" as="geometry" />
        </mxCell>
        <mxCell id="EL7Et4fL0F2UAVuM8DYT-15" value="" style="endArrow=classic;html=1;rounded=0;exitX=1;exitY=0.5;exitDx=0;exitDy=0;fillColor=#dae8fc;strokeColor=#6c8ebf;" parent="1" source="EL7Et4fL0F2UAVuM8DYT-5" target="EL7Et4fL0F2UAVuM8DYT-13" edge="1">
          <mxGeometry width="50" height="50" relative="1" as="geometry">
            <mxPoint x="-875" y="-55" as="sourcePoint" />
            <mxPoint x="-735" y="15" as="targetPoint" />
          </mxGeometry>
        </mxCell>
        <mxCell id="EL7Et4fL0F2UAVuM8DYT-16" value="" style="endArrow=classic;html=1;rounded=0;fillColor=#dae8fc;strokeColor=#6c8ebf;" parent="1" source="EL7Et4fL0F2UAVuM8DYT-12" target="EL7Et4fL0F2UAVuM8DYT-59" edge="1">
          <mxGeometry width="50" height="50" relative="1" as="geometry">
            <mxPoint x="-845" y="40" as="sourcePoint" />
            <mxPoint x="-745" y="29" as="targetPoint" />
          </mxGeometry>
        </mxCell>
        <mxCell id="EL7Et4fL0F2UAVuM8DYT-17" value="" style="endArrow=classic;html=1;rounded=0;entryX=0;entryY=0.5;entryDx=0;entryDy=0;fillColor=#dae8fc;strokeColor=#6c8ebf;exitX=0.893;exitY=1.017;exitDx=0;exitDy=0;exitPerimeter=0;" parent="1" source="JisptBNUSfxg09JHxxqs-12" target="EL7Et4fL0F2UAVuM8DYT-81" edge="1">
          <mxGeometry width="50" height="50" relative="1" as="geometry">
            <mxPoint x="-470" y="21" as="sourcePoint" />
            <mxPoint x="-190" y="30" as="targetPoint" />
          </mxGeometry>
        </mxCell>
        <mxCell id="EL7Et4fL0F2UAVuM8DYT-22" value="" style="edgeStyle=orthogonalEdgeStyle;rounded=0;orthogonalLoop=1;jettySize=auto;html=1;entryX=1;entryY=0.5;entryDx=0;entryDy=0;fillColor=#d5e8d4;strokeColor=#82b366;" parent="1" source="EL7Et4fL0F2UAVuM8DYT-19" target="EL7Et4fL0F2UAVuM8DYT-21" edge="1">
          <mxGeometry relative="1" as="geometry">
            <mxPoint x="270" y="490" as="targetPoint" />
          </mxGeometry>
        </mxCell>
        <mxCell id="EL7Et4fL0F2UAVuM8DYT-19" value="X_RDK_WanManager.CPEInterface.1.Wan.LinkStatus" style="shape=parallelogram;perimeter=parallelogramPerimeter;whiteSpace=wrap;html=1;fixedSize=1;fillColor=#d5e8d4;strokeColor=#82b366;strokeWidth=3;" parent="1" vertex="1">
          <mxGeometry x="110" y="215" width="330" height="20" as="geometry" />
        </mxCell>
        <mxCell id="EL7Et4fL0F2UAVuM8DYT-25" value="" style="edgeStyle=orthogonalEdgeStyle;rounded=0;orthogonalLoop=1;jettySize=auto;html=1;fillColor=#d5e8d4;strokeColor=#82b366;" parent="1" source="EL7Et4fL0F2UAVuM8DYT-21" target="EL7Et4fL0F2UAVuM8DYT-24" edge="1">
          <mxGeometry relative="1" as="geometry" />
        </mxCell>
        <mxCell id="EL7Et4fL0F2UAVuM8DYT-21" value="CONFIGURING_WAN" style="shape=process;whiteSpace=wrap;html=1;backgroundOutline=1;fillColor=#d5e8d4;strokeColor=#82b366;strokeWidth=2;" parent="1" vertex="1">
          <mxGeometry y="360" width="160" height="20" as="geometry" />
        </mxCell>
        <mxCell id="EL7Et4fL0F2UAVuM8DYT-28" value="" style="edgeStyle=orthogonalEdgeStyle;rounded=0;orthogonalLoop=1;jettySize=auto;html=1;fillColor=#d5e8d4;strokeColor=#82b366;" parent="1" source="EL7Et4fL0F2UAVuM8DYT-24" target="EL7Et4fL0F2UAVuM8DYT-26" edge="1">
          <mxGeometry relative="1" as="geometry" />
        </mxCell>
        <mxCell id="EL7Et4fL0F2UAVuM8DYT-24" value="VALIDATING_WAN" style="shape=process;whiteSpace=wrap;html=1;backgroundOutline=1;fillColor=#d5e8d4;strokeColor=#82b366;strokeWidth=2;" parent="1" vertex="1">
          <mxGeometry y="400" width="160" height="20" as="geometry" />
        </mxCell>
        <mxCell id="EL7Et4fL0F2UAVuM8DYT-30" value="" style="edgeStyle=orthogonalEdgeStyle;rounded=0;orthogonalLoop=1;jettySize=auto;html=1;fillColor=#d5e8d4;strokeColor=#82b366;" parent="1" source="EL7Et4fL0F2UAVuM8DYT-26" target="EL7Et4fL0F2UAVuM8DYT-27" edge="1">
          <mxGeometry relative="1" as="geometry" />
        </mxCell>
        <mxCell id="EL7Et4fL0F2UAVuM8DYT-33" value="" style="edgeStyle=orthogonalEdgeStyle;rounded=0;orthogonalLoop=1;jettySize=auto;html=1;fillColor=#d5e8d4;strokeColor=#82b366;" parent="1" source="EL7Et4fL0F2UAVuM8DYT-26" target="EL7Et4fL0F2UAVuM8DYT-32" edge="1">
          <mxGeometry relative="1" as="geometry" />
        </mxCell>
        <mxCell id="EL7Et4fL0F2UAVuM8DYT-26" value="WAN_VALIDATED" style="shape=process;whiteSpace=wrap;html=1;backgroundOutline=1;fillColor=#d5e8d4;strokeColor=#82b366;strokeWidth=2;" parent="1" vertex="1">
          <mxGeometry y="440" width="160" height="20" as="geometry" />
        </mxCell>
        <mxCell id="EL7Et4fL0F2UAVuM8DYT-35" value="" style="edgeStyle=orthogonalEdgeStyle;rounded=0;orthogonalLoop=1;jettySize=auto;html=1;fillColor=#d5e8d4;strokeColor=#82b366;" parent="1" source="EL7Et4fL0F2UAVuM8DYT-27" target="EL7Et4fL0F2UAVuM8DYT-34" edge="1">
          <mxGeometry relative="1" as="geometry" />
        </mxCell>
        <mxCell id="EL7Et4fL0F2UAVuM8DYT-89" value="" style="edgeStyle=orthogonalEdgeStyle;rounded=0;orthogonalLoop=1;jettySize=auto;html=1;fillColor=#d5e8d4;strokeColor=#82b366;exitX=1;exitY=0.75;exitDx=0;exitDy=0;" parent="1" source="EL7Et4fL0F2UAVuM8DYT-27" edge="1">
          <mxGeometry relative="1" as="geometry">
            <mxPoint x="240" y="530" as="targetPoint" />
            <Array as="points">
              <mxPoint x="240" y="555" />
            </Array>
          </mxGeometry>
        </mxCell>
        <mxCell id="EL7Et4fL0F2UAVuM8DYT-27" value="OBTAINING_IP_&lt;br&gt;ADDRESSES" style="shape=process;whiteSpace=wrap;html=1;backgroundOutline=1;fillColor=#d5e8d4;strokeColor=#82b366;verticalAlign=top;strokeWidth=2;" parent="1" vertex="1">
          <mxGeometry y="480" width="160" height="120" as="geometry" />
        </mxCell>
        <mxCell id="EL7Et4fL0F2UAVuM8DYT-32" value="stopDhcpClients()&lt;br&gt;startDhcpClients()" style="text;html=1;align=center;verticalAlign=middle;resizable=0;points=[];autosize=1;strokeColor=#82b366;fillColor=#d5e8d4;" parent="1" vertex="1">
          <mxGeometry x="230" y="430" width="120" height="40" as="geometry" />
        </mxCell>
        <mxCell id="EL7Et4fL0F2UAVuM8DYT-34" value="IPV4_&lt;br&gt;LEASED" style="shape=process;whiteSpace=wrap;html=1;backgroundOutline=1;fillColor=#d5e8d4;strokeColor=#82b366;strokeWidth=2;" parent="1" vertex="1">
          <mxGeometry x="30" y="630" width="100" height="40" as="geometry" />
        </mxCell>
        <mxCell id="EL7Et4fL0F2UAVuM8DYT-36" value="ipc server&lt;br&gt;" style="ellipse;whiteSpace=wrap;html=1;fillColor=#d5e8d4;strokeColor=#82b366;" parent="1" vertex="1">
          <mxGeometry x="460" y="470" width="70" height="80" as="geometry" />
        </mxCell>
        <mxCell id="EL7Et4fL0F2UAVuM8DYT-40" value="IPV6_&lt;br&gt;LEASED" style="shape=process;whiteSpace=wrap;html=1;backgroundOutline=1;fillColor=#d5e8d4;strokeColor=#82b366;strokeWidth=2;" parent="1" vertex="1">
          <mxGeometry x="140" y="630" width="90" height="40" as="geometry" />
        </mxCell>
        <mxCell id="EL7Et4fL0F2UAVuM8DYT-41" value="" style="edgeStyle=orthogonalEdgeStyle;rounded=0;orthogonalLoop=1;jettySize=auto;html=1;entryX=0.5;entryY=0;entryDx=0;entryDy=0;fillColor=#d5e8d4;strokeColor=#82b366;" parent="1" source="EL7Et4fL0F2UAVuM8DYT-27" target="EL7Et4fL0F2UAVuM8DYT-40" edge="1">
          <mxGeometry relative="1" as="geometry">
            <mxPoint x="110" y="530" as="sourcePoint" />
            <mxPoint x="95" y="590" as="targetPoint" />
            <Array as="points">
              <mxPoint x="80" y="610" />
              <mxPoint x="185" y="610" />
            </Array>
          </mxGeometry>
        </mxCell>
        <mxCell id="EL7Et4fL0F2UAVuM8DYT-43" value="" style="edgeStyle=orthogonalEdgeStyle;rounded=0;orthogonalLoop=1;jettySize=auto;html=1;" parent="1" source="EL7Et4fL0F2UAVuM8DYT-42" target="EL7Et4fL0F2UAVuM8DYT-36" edge="1">
          <mxGeometry relative="1" as="geometry">
            <Array as="points">
              <mxPoint x="845" y="825" />
              <mxPoint x="660" y="825" />
              <mxPoint x="660" y="515" />
            </Array>
          </mxGeometry>
        </mxCell>
        <mxCell id="uKChVChPocDeN4nDB4ak-19" value="&amp;nbsp;NANOMSG&amp;nbsp;" style="edgeLabel;html=1;align=center;verticalAlign=middle;resizable=0;points=[];labelBackgroundColor=#f5f5f5;" parent="EL7Et4fL0F2UAVuM8DYT-43" vertex="1" connectable="0">
          <mxGeometry x="-0.5171" y="-1" relative="1" as="geometry">
            <mxPoint as="offset" />
          </mxGeometry>
        </mxCell>
        <mxCell id="EL7Et4fL0F2UAVuM8DYT-42" value="service_udhcpc" style="rounded=0;whiteSpace=wrap;html=1;" parent="1" vertex="1">
          <mxGeometry x="770" y="760" width="150" height="30" as="geometry" />
        </mxCell>
        <mxCell id="EL7Et4fL0F2UAVuM8DYT-45" value="" style="endArrow=classic;html=1;rounded=0;entryX=0;entryY=0.5;entryDx=0;entryDy=0;fillColor=#dae8fc;strokeColor=#6c8ebf;" parent="1" source="EL7Et4fL0F2UAVuM8DYT-44" target="EL7Et4fL0F2UAVuM8DYT-19" edge="1">
          <mxGeometry width="50" height="50" relative="1" as="geometry">
            <mxPoint x="-480" y="54" as="sourcePoint" />
            <mxPoint x="-190" y="51" as="targetPoint" />
          </mxGeometry>
        </mxCell>
        <mxCell id="EL7Et4fL0F2UAVuM8DYT-47" value="" style="endArrow=classic;html=1;rounded=0;entryX=0;entryY=0.5;entryDx=0;entryDy=0;fillColor=#dae8fc;strokeColor=#6c8ebf;" parent="1" source="EL7Et4fL0F2UAVuM8DYT-46" target="EL7Et4fL0F2UAVuM8DYT-49" edge="1">
          <mxGeometry width="50" height="50" relative="1" as="geometry">
            <mxPoint x="280.00454545454545" y="220" as="sourcePoint" />
            <mxPoint x="402.54999999999995" y="295" as="targetPoint" />
          </mxGeometry>
        </mxCell>
        <mxCell id="EL7Et4fL0F2UAVuM8DYT-49" value="X_RDK_WanManager.CPEInterface.1.Wan.Name" style="shape=parallelogram;perimeter=parallelogramPerimeter;whiteSpace=wrap;html=1;fixedSize=1;fillColor=#d5e8d4;strokeColor=#82b366;strokeWidth=3;" parent="1" vertex="1">
          <mxGeometry x="110" y="175" width="330" height="20" as="geometry" />
        </mxCell>
        <mxCell id="EL7Et4fL0F2UAVuM8DYT-50" value="ETH_WAN_LINK_UP" style="shape=process;whiteSpace=wrap;html=1;backgroundOutline=1;fillColor=#dae8fc;strokeColor=#6c8ebf;verticalAlign=top;strokeWidth=2;" parent="1" vertex="1">
          <mxGeometry x="-755" y="315" width="210" height="90" as="geometry" />
        </mxCell>
        <mxCell id="EL7Et4fL0F2UAVuM8DYT-53" value="" style="edgeStyle=orthogonalEdgeStyle;rounded=0;orthogonalLoop=1;jettySize=auto;html=1;fillColor=#dae8fc;strokeColor=#6c8ebf;" parent="1" source="EL7Et4fL0F2UAVuM8DYT-51" target="EL7Et4fL0F2UAVuM8DYT-50" edge="1">
          <mxGeometry relative="1" as="geometry" />
        </mxCell>
        <mxCell id="EL7Et4fL0F2UAVuM8DYT-51" value="ETH_VLAN_CONFIGURING" style="shape=process;whiteSpace=wrap;html=1;backgroundOutline=1;fillColor=#dae8fc;strokeColor=#6c8ebf;strokeWidth=2;verticalAlign=top;" parent="1" vertex="1">
          <mxGeometry x="-755" y="195" width="210" height="90" as="geometry" />
        </mxCell>
        <mxCell id="EL7Et4fL0F2UAVuM8DYT-55" value="" style="edgeStyle=orthogonalEdgeStyle;rounded=0;orthogonalLoop=1;jettySize=auto;html=1;fillColor=#dae8fc;strokeColor=#6c8ebf;" parent="1" source="EL7Et4fL0F2UAVuM8DYT-52" target="EL7Et4fL0F2UAVuM8DYT-54" edge="1">
          <mxGeometry relative="1" as="geometry" />
        </mxCell>
        <mxCell id="EL7Et4fL0F2UAVuM8DYT-52" value="ETH_DISCONNECTED" style="shape=process;whiteSpace=wrap;html=1;backgroundOutline=1;fillColor=#dae8fc;strokeColor=#6c8ebf;strokeWidth=2;" parent="1" vertex="1">
          <mxGeometry x="-755" y="102.5" width="210" height="20" as="geometry" />
        </mxCell>
        <mxCell id="EL7Et4fL0F2UAVuM8DYT-56" value="" style="edgeStyle=orthogonalEdgeStyle;rounded=0;orthogonalLoop=1;jettySize=auto;html=1;fillColor=#dae8fc;strokeColor=#6c8ebf;" parent="1" source="EL7Et4fL0F2UAVuM8DYT-54" target="EL7Et4fL0F2UAVuM8DYT-51" edge="1">
          <mxGeometry relative="1" as="geometry" />
        </mxCell>
        <mxCell id="EL7Et4fL0F2UAVuM8DYT-54" value="ETH_VALIDATING_LINK" style="shape=process;whiteSpace=wrap;html=1;backgroundOutline=1;fillColor=#dae8fc;strokeColor=#6c8ebf;strokeWidth=2;" parent="1" vertex="1">
          <mxGeometry x="-755" y="145" width="210" height="20" as="geometry" />
        </mxCell>
        <mxCell id="EL7Et4fL0F2UAVuM8DYT-58" value="" style="edgeStyle=orthogonalEdgeStyle;rounded=0;orthogonalLoop=1;jettySize=auto;html=1;fillColor=#dae8fc;strokeColor=#6c8ebf;" parent="1" source="EL7Et4fL0F2UAVuM8DYT-57" target="EL7Et4fL0F2UAVuM8DYT-52" edge="1">
          <mxGeometry relative="1" as="geometry" />
        </mxCell>
        <mxCell id="EL7Et4fL0F2UAVuM8DYT-57" value="EXIT" style="shape=process;whiteSpace=wrap;html=1;backgroundOutline=1;fillColor=#dae8fc;strokeColor=#6c8ebf;strokeWidth=2;" parent="1" vertex="1">
          <mxGeometry x="-755" y="45" width="210" height="20" as="geometry" />
        </mxCell>
        <mxCell id="EL7Et4fL0F2UAVuM8DYT-59" value="CosaDmlEthSetPhyStatusForWanManager()" style="text;html=1;align=center;verticalAlign=middle;resizable=0;points=[];autosize=1;strokeColor=#6c8ebf;fillColor=#dae8fc;" parent="1" vertex="1">
          <mxGeometry x="-580" y="-235" width="260" height="30" as="geometry" />
        </mxCell>
        <mxCell id="EL7Et4fL0F2UAVuM8DYT-63" value="" style="edgeStyle=orthogonalEdgeStyle;rounded=0;orthogonalLoop=1;jettySize=auto;html=1;fillColor=#dae8fc;strokeColor=#6c8ebf;" parent="1" source="EL7Et4fL0F2UAVuM8DYT-62" target="JB-XBUJDA3JaLd-VkqM5-5" edge="1">
          <mxGeometry relative="1" as="geometry">
            <mxPoint x="-585" y="105" as="targetPoint" />
            <Array as="points">
              <mxPoint x="-325" y="135" />
              <mxPoint x="-448" y="135" />
            </Array>
          </mxGeometry>
        </mxCell>
        <mxCell id="JisptBNUSfxg09JHxxqs-34" value="UP = TRUE" style="edgeLabel;html=1;align=center;verticalAlign=middle;resizable=0;points=[];labelBackgroundColor=#dae8fc;" parent="EL7Et4fL0F2UAVuM8DYT-63" vertex="1" connectable="0">
          <mxGeometry x="-0.0667" y="1" relative="1" as="geometry">
            <mxPoint x="36" y="-3" as="offset" />
          </mxGeometry>
        </mxCell>
        <mxCell id="EL7Et4fL0F2UAVuM8DYT-62" value="Ethernet.X_RDK_Interface.1.Upstream" style="shape=parallelogram;perimeter=parallelogramPerimeter;whiteSpace=wrap;html=1;fixedSize=1;fillColor=#dae8fc;strokeColor=#6c8ebf;strokeWidth=3;" parent="1" vertex="1">
          <mxGeometry x="-470" y="122.5" width="270" height="30" as="geometry" />
        </mxCell>
        <mxCell id="EL7Et4fL0F2UAVuM8DYT-64" value="CosaDmlEthCreateEthLink()" style="text;html=1;align=center;verticalAlign=middle;resizable=0;points=[];autosize=1;strokeColor=#6c8ebf;fillColor=#dae8fc;" parent="1" vertex="1">
          <mxGeometry x="-535" y="355" width="170" height="30" as="geometry" />
        </mxCell>
        <mxCell id="EL7Et4fL0F2UAVuM8DYT-65" value="" style="rounded=0;whiteSpace=wrap;html=1;fillColor=#fff2cc;strokeColor=#d6b656;strokeWidth=4;" parent="1" vertex="1">
          <mxGeometry x="-875" y="495" width="730" height="320" as="geometry" />
        </mxCell>
        <mxCell id="EL7Et4fL0F2UAVuM8DYT-66" value="VlanManager" style="text;html=1;strokeColor=#d6b656;fillColor=#fff2cc;align=center;verticalAlign=middle;whiteSpace=wrap;rounded=0;fontStyle=1;fontSize=15;" parent="1" vertex="1">
          <mxGeometry x="-875" y="495" width="110" height="30" as="geometry" />
        </mxCell>
        <mxCell id="EL7Et4fL0F2UAVuM8DYT-67" value="" style="edgeStyle=orthogonalEdgeStyle;rounded=0;orthogonalLoop=1;jettySize=auto;html=1;fillColor=#dae8fc;strokeColor=#6c8ebf;" parent="1" source="EL7Et4fL0F2UAVuM8DYT-51" target="EL7Et4fL0F2UAVuM8DYT-64" edge="1">
          <mxGeometry relative="1" as="geometry">
            <mxPoint x="-575" y="255" as="sourcePoint" />
            <mxPoint x="-515" y="250" as="targetPoint" />
            <Array as="points">
              <mxPoint x="-615" y="295" />
              <mxPoint x="-530" y="295" />
            </Array>
          </mxGeometry>
        </mxCell>
        <mxCell id="EL7Et4fL0F2UAVuM8DYT-68" value="" style="edgeStyle=orthogonalEdgeStyle;rounded=0;orthogonalLoop=1;jettySize=auto;html=1;fillColor=#dae8fc;strokeColor=#6c8ebf;" parent="1" source="EL7Et4fL0F2UAVuM8DYT-64" target="EL7Et4fL0F2UAVuM8DYT-69" edge="1">
          <mxGeometry relative="1" as="geometry">
            <mxPoint x="-530" y="395" as="sourcePoint" />
            <mxPoint x="-545" y="475" as="targetPoint" />
            <Array as="points" />
          </mxGeometry>
        </mxCell>
        <mxCell id="EL7Et4fL0F2UAVuM8DYT-69" value="X_RDK_Ethernet.Link.2.Alias&lt;br&gt;X_RDK_Ethernet.Link.2.Name&lt;br&gt;X_RDK_Ethernet.Link.2.X_RDK_BaseInterface&lt;br&gt;X_RDK_Ethernet.Link.2.LowerLayers&lt;br&gt;&lt;b&gt;X_RDK_Ethernet.Link.2.Enable&lt;/b&gt;" style="shape=parallelogram;perimeter=parallelogramPerimeter;whiteSpace=wrap;html=1;fixedSize=1;fillColor=#fff2cc;strokeColor=#d6b656;strokeWidth=3;" parent="1" vertex="1">
          <mxGeometry x="-795" y="560" width="280" height="90" as="geometry" />
        </mxCell>
        <mxCell id="EL7Et4fL0F2UAVuM8DYT-70" value="DmlCreateEthInterface()" style="text;html=1;align=center;verticalAlign=middle;resizable=0;points=[];autosize=1;strokeColor=#d6b656;fillColor=#fff2cc;" parent="1" vertex="1">
          <mxGeometry x="-675" y="685" width="150" height="30" as="geometry" />
        </mxCell>
        <mxCell id="EL7Et4fL0F2UAVuM8DYT-71" value="" style="edgeStyle=orthogonalEdgeStyle;rounded=0;orthogonalLoop=1;jettySize=auto;html=1;fillColor=#fff2cc;strokeColor=#d6b656;" parent="1" source="EL7Et4fL0F2UAVuM8DYT-69" target="EL7Et4fL0F2UAVuM8DYT-70" edge="1">
          <mxGeometry relative="1" as="geometry">
            <mxPoint x="-515" y="810" as="sourcePoint" />
            <mxPoint x="-520" y="605" as="targetPoint" />
            <Array as="points">
              <mxPoint x="-625" y="625" />
              <mxPoint x="-560" y="625" />
            </Array>
          </mxGeometry>
        </mxCell>
        <mxCell id="EL7Et4fL0F2UAVuM8DYT-72" value="DmlEthSendWanStatusForBaseManager()" style="text;html=1;align=center;verticalAlign=middle;resizable=0;points=[];autosize=1;strokeColor=#d6b656;fillColor=#fff2cc;" parent="1" vertex="1">
          <mxGeometry x="-410" y="565" width="250" height="30" as="geometry" />
        </mxCell>
        <mxCell id="EL7Et4fL0F2UAVuM8DYT-73" value="" style="endArrow=classic;html=1;rounded=0;fillColor=#fff2cc;strokeColor=#d6b656;" parent="1" source="EL7Et4fL0F2UAVuM8DYT-72" target="EL7Et4fL0F2UAVuM8DYT-10" edge="1">
          <mxGeometry width="50" height="50" relative="1" as="geometry">
            <mxPoint x="-345" y="585" as="sourcePoint" />
            <mxPoint x="-295" y="535" as="targetPoint" />
          </mxGeometry>
        </mxCell>
        <mxCell id="EL7Et4fL0F2UAVuM8DYT-74" value="" style="endArrow=classic;html=1;rounded=0;fillColor=#fff2cc;strokeColor=#d6b656;" parent="1" source="EL7Et4fL0F2UAVuM8DYT-70" target="EL7Et4fL0F2UAVuM8DYT-72" edge="1">
          <mxGeometry width="50" height="50" relative="1" as="geometry">
            <mxPoint x="-305" y="625" as="sourcePoint" />
            <mxPoint x="-255" y="575" as="targetPoint" />
          </mxGeometry>
        </mxCell>
        <mxCell id="EL7Et4fL0F2UAVuM8DYT-75" value="ip link add erouter0 name eth0 type vlan&lt;br&gt;vlan_setup.sh" style="rounded=0;whiteSpace=wrap;html=1;" parent="1" vertex="1">
          <mxGeometry x="-825" y="845" width="240" height="50" as="geometry" />
        </mxCell>
        <mxCell id="EL7Et4fL0F2UAVuM8DYT-76" value="" style="endArrow=classic;html=1;rounded=0;fillColor=#fff2cc;strokeColor=#d6b656;" parent="1" source="EL7Et4fL0F2UAVuM8DYT-70" target="JB-XBUJDA3JaLd-VkqM5-4" edge="1">
          <mxGeometry width="50" height="50" relative="1" as="geometry">
            <mxPoint x="-235" y="835" as="sourcePoint" />
            <mxPoint x="-715" y="924.4117647058824" as="targetPoint" />
          </mxGeometry>
        </mxCell>
        <mxCell id="EL7Et4fL0F2UAVuM8DYT-78" value="" style="endArrow=classic;html=1;rounded=0;fillColor=#fff2cc;strokeColor=#d6b656;" parent="1" source="JB-XBUJDA3JaLd-VkqM5-4" target="EL7Et4fL0F2UAVuM8DYT-75" edge="1">
          <mxGeometry width="50" height="50" relative="1" as="geometry">
            <mxPoint x="-695" y="735" as="sourcePoint" />
            <mxPoint x="-565" y="735" as="targetPoint" />
          </mxGeometry>
        </mxCell>
        <mxCell id="EL7Et4fL0F2UAVuM8DYT-79" value="" style="rounded=0;whiteSpace=wrap;html=1;fillColor=#ffe6cc;strokeColor=#d79b00;strokeWidth=4;" parent="1" vertex="1">
          <mxGeometry x="785.1600000000001" y="-390" width="790" height="1030" as="geometry" />
        </mxCell>
        <mxCell id="EL7Et4fL0F2UAVuM8DYT-80" value="profilehunter" style="text;html=1;strokeColor=#d79b00;fillColor=#ffe6cc;align=center;verticalAlign=middle;whiteSpace=wrap;rounded=0;fontStyle=1;fontSize=15;" parent="1" vertex="1">
          <mxGeometry x="785.1600000000001" y="-390" width="120" height="30" as="geometry" />
        </mxCell>
        <mxCell id="EL7Et4fL0F2UAVuM8DYT-81" value="X_RDK_WanManager.CPEInterface.1.Phy.Path" style="shape=parallelogram;perimeter=parallelogramPerimeter;whiteSpace=wrap;html=1;fixedSize=1;fillColor=#d5e8d4;strokeColor=#82b366;strokeWidth=3;" parent="1" vertex="1">
          <mxGeometry x="60" y="97.5" width="290" height="25" as="geometry" />
        </mxCell>
        <mxCell id="EL7Et4fL0F2UAVuM8DYT-82" value="" style="endArrow=classic;html=1;rounded=0;fillColor=#dae8fc;strokeColor=#6c8ebf;" parent="1" source="EL7Et4fL0F2UAVuM8DYT-59" target="EL7Et4fL0F2UAVuM8DYT-7" edge="1">
          <mxGeometry width="50" height="50" relative="1" as="geometry">
            <mxPoint x="-90" y="43" as="sourcePoint" />
            <mxPoint x="80" y="33" as="targetPoint" />
          </mxGeometry>
        </mxCell>
        <mxCell id="EL7Et4fL0F2UAVuM8DYT-83" value="X_LGI-COM_ProfileHunting.Enable" style="shape=parallelogram;perimeter=parallelogramPerimeter;whiteSpace=wrap;html=1;fixedSize=1;fillColor=#ffe6cc;strokeColor=#d79b00;" parent="1" vertex="1">
          <mxGeometry x="1265.1599999999999" y="-220" width="270" height="30" as="geometry" />
        </mxCell>
        <mxCell id="EL7Et4fL0F2UAVuM8DYT-84" value="X_LGI-COM_ProfileHunting.Status" style="shape=parallelogram;perimeter=parallelogramPerimeter;whiteSpace=wrap;html=1;fixedSize=1;fillColor=#ffe6cc;strokeColor=#d79b00;" parent="1" vertex="1">
          <mxGeometry x="1265.1599999999999" y="-170" width="270" height="30" as="geometry" />
        </mxCell>
        <mxCell id="EL7Et4fL0F2UAVuM8DYT-85" value="X_LGI-COM_ProfileHunting.ActiveProfile" style="shape=parallelogram;perimeter=parallelogramPerimeter;whiteSpace=wrap;html=1;fixedSize=1;fillColor=#ffe6cc;strokeColor=#d79b00;" parent="1" vertex="1">
          <mxGeometry x="1265.1599999999999" y="-120" width="270" height="30" as="geometry" />
        </mxCell>
        <mxCell id="EL7Et4fL0F2UAVuM8DYT-91" value="" style="endArrow=classic;html=1;rounded=0;fillColor=#d5e8d4;strokeColor=#82b366;" parent="1" source="uKChVChPocDeN4nDB4ak-24" target="JB-XBUJDA3JaLd-VkqM5-11" edge="1">
          <mxGeometry width="50" height="50" relative="1" as="geometry">
            <mxPoint x="330" y="510" as="sourcePoint" />
            <mxPoint x="290" y="510" as="targetPoint" />
          </mxGeometry>
        </mxCell>
        <mxCell id="EL7Et4fL0F2UAVuM8DYT-92" value="Device.X_RDK_WanManager.Enable&lt;br&gt;Policy =&amp;nbsp;AUTOWAN_MODE" style="shape=parallelogram;perimeter=parallelogramPerimeter;whiteSpace=wrap;html=1;fixedSize=1;fillColor=#d5e8d4;strokeColor=#82b366;strokeWidth=3;" parent="1" vertex="1">
          <mxGeometry x="320" y="-660" width="250" height="35" as="geometry" />
        </mxCell>
        <mxCell id="EL7Et4fL0F2UAVuM8DYT-98" value="factory reset" style="rounded=1;whiteSpace=wrap;html=1;fillColor=#f8cecc;strokeColor=#b85450;" parent="1" vertex="1">
          <mxGeometry x="730" y="-662.5" width="230" height="40" as="geometry" />
        </mxCell>
        <mxCell id="EL7Et4fL0F2UAVuM8DYT-99" value="udhcpc&amp;nbsp;&lt;br&gt;erouter0" style="rounded=0;whiteSpace=wrap;html=1;align=center;strokeWidth=3;" parent="1" vertex="1">
          <mxGeometry x="770" y="690" width="150" height="45" as="geometry" />
        </mxCell>
        <mxCell id="EL7Et4fL0F2UAVuM8DYT-100" value="" style="endArrow=classic;html=1;rounded=0;fillColor=#d5e8d4;strokeColor=#82b366;" parent="1" source="EL7Et4fL0F2UAVuM8DYT-32" target="EL7Et4fL0F2UAVuM8DYT-99" edge="1">
          <mxGeometry width="50" height="50" relative="1" as="geometry">
            <mxPoint x="560" y="410" as="sourcePoint" />
            <mxPoint x="610" y="360" as="targetPoint" />
            <Array as="points">
              <mxPoint x="710" y="450" />
              <mxPoint x="710" y="670" />
              <mxPoint x="845" y="670" />
            </Array>
          </mxGeometry>
        </mxCell>
        <mxCell id="EL7Et4fL0F2UAVuM8DYT-155" value="" style="edgeStyle=orthogonalEdgeStyle;rounded=0;orthogonalLoop=1;jettySize=auto;html=1;fillColor=#ffe6cc;strokeColor=#d79b00;" parent="1" source="EL7Et4fL0F2UAVuM8DYT-101" target="EL7Et4fL0F2UAVuM8DYT-102" edge="1">
          <mxGeometry relative="1" as="geometry">
            <Array as="points">
              <mxPoint x="1005.1600000000001" y="-90" />
              <mxPoint x="940.1600000000001" y="-90" />
            </Array>
          </mxGeometry>
        </mxCell>
        <mxCell id="EL7Et4fL0F2UAVuM8DYT-101" value="VALIDATE_CONFIGURATION" style="shape=process;whiteSpace=wrap;html=1;backgroundOutline=1;fillColor=#ffe6cc;strokeColor=#d79b00;verticalAlign=top;strokeWidth=2;" parent="1" vertex="1">
          <mxGeometry x="825.1600000000001" y="-210" width="360" height="110" as="geometry" />
        </mxCell>
        <mxCell id="EL7Et4fL0F2UAVuM8DYT-102" value="FIRST_INIT" style="shape=process;whiteSpace=wrap;html=1;backgroundOutline=1;fillColor=#ffe6cc;strokeColor=#d79b00;verticalAlign=top;strokeWidth=2;" parent="1" vertex="1">
          <mxGeometry x="825.1600000000001" y="-70" width="540" height="130" as="geometry" />
        </mxCell>
        <mxCell id="EL7Et4fL0F2UAVuM8DYT-103" value="OBTAINING_ACTIVE_WAN" style="shape=process;whiteSpace=wrap;html=1;backgroundOutline=1;fillColor=#ffe6cc;strokeColor=#d79b00;verticalAlign=top;align=right;strokeWidth=2;" parent="1" vertex="1">
          <mxGeometry x="825.1600000000001" y="80" width="340" height="110" as="geometry" />
        </mxCell>
        <mxCell id="EL7Et4fL0F2UAVuM8DYT-104" value="APPLY_PROFILE" style="shape=process;whiteSpace=wrap;html=1;backgroundOutline=1;fillColor=#ffe6cc;strokeColor=#d79b00;verticalAlign=top;strokeWidth=2;" parent="1" vertex="1">
          <mxGeometry x="1185.1599999999999" y="260" width="330" height="140" as="geometry" />
        </mxCell>
        <mxCell id="EL7Et4fL0F2UAVuM8DYT-105" value="APPLY_COMPLETED" style="shape=process;whiteSpace=wrap;html=1;backgroundOutline=1;fillColor=#ffe6cc;strokeColor=#d79b00;verticalAlign=top;strokeWidth=2;" parent="1" vertex="1">
          <mxGeometry x="1195.1599999999999" y="450" width="230" height="110" as="geometry" />
        </mxCell>
        <mxCell id="EL7Et4fL0F2UAVuM8DYT-106" value="VALIDATING_WAN" style="shape=process;whiteSpace=wrap;html=1;backgroundOutline=1;verticalAlign=top;fillColor=#ffe6cc;strokeColor=#d79b00;strokeWidth=2;" parent="1" vertex="1">
          <mxGeometry x="825.1600000000001" y="210" width="340" height="300" as="geometry" />
        </mxCell>
        <mxCell id="EL7Et4fL0F2UAVuM8DYT-107" value="SENSING_WAN" style="shape=process;whiteSpace=wrap;html=1;backgroundOutline=1;fillColor=#ffe6cc;strokeColor=#d79b00;strokeWidth=2;" parent="1" vertex="1">
          <mxGeometry x="825.1600000000001" y="580" width="230" height="20" as="geometry" />
        </mxCell>
        <mxCell id="EL7Et4fL0F2UAVuM8DYT-108" value="WAN_CONFIGURED" style="shape=process;whiteSpace=wrap;html=1;backgroundOutline=1;fillColor=#ffe6cc;strokeColor=#d79b00;strokeWidth=2;" parent="1" vertex="1">
          <mxGeometry x="825.1600000000001" y="540" width="230" height="20" as="geometry" />
        </mxCell>
        <mxCell id="EL7Et4fL0F2UAVuM8DYT-110" value="X_RDK_WanManager.CPEInterface.1.IP.IPv4Status" style="shape=parallelogram;perimeter=parallelogramPerimeter;whiteSpace=wrap;html=1;fixedSize=1;fillColor=#d5e8d4;strokeColor=#82b366;strokeWidth=3;" parent="1" vertex="1">
          <mxGeometry x="300" y="630" width="330" height="20" as="geometry" />
        </mxCell>
        <mxCell id="EL7Et4fL0F2UAVuM8DYT-111" value="X_RDK_WanManager.CPEInterface.1.IP.IPv6Status" style="shape=parallelogram;perimeter=parallelogramPerimeter;whiteSpace=wrap;html=1;fixedSize=1;fillColor=#d5e8d4;strokeColor=#82b366;strokeWidth=3;" parent="1" vertex="1">
          <mxGeometry x="300" y="660" width="320" height="20" as="geometry" />
        </mxCell>
        <mxCell id="EL7Et4fL0F2UAVuM8DYT-112" value="" style="endArrow=classic;html=1;rounded=0;exitX=1;exitY=0.75;exitDx=0;exitDy=0;fillColor=#d5e8d4;strokeColor=#82b366;" parent="1" source="EL7Et4fL0F2UAVuM8DYT-109" target="EL7Et4fL0F2UAVuM8DYT-129" edge="1">
          <mxGeometry width="50" height="50" relative="1" as="geometry">
            <mxPoint x="570" y="710" as="sourcePoint" />
            <mxPoint x="620" y="660" as="targetPoint" />
          </mxGeometry>
        </mxCell>
        <mxCell id="EL7Et4fL0F2UAVuM8DYT-113" value="" style="endArrow=classic;html=1;rounded=0;exitX=1;exitY=0.75;exitDx=0;exitDy=0;fillColor=#d5e8d4;strokeColor=#82b366;" parent="1" source="EL7Et4fL0F2UAVuM8DYT-110" target="EL7Et4fL0F2UAVuM8DYT-119" edge="1">
          <mxGeometry width="50" height="50" relative="1" as="geometry">
            <mxPoint x="475" y="695" as="sourcePoint" />
            <mxPoint x="720" y="592" as="targetPoint" />
          </mxGeometry>
        </mxCell>
        <mxCell id="EL7Et4fL0F2UAVuM8DYT-114" value="" style="endArrow=classic;html=1;rounded=0;exitX=1;exitY=0.5;exitDx=0;exitDy=0;fillColor=#d5e8d4;strokeColor=#82b366;" parent="1" source="EL7Et4fL0F2UAVuM8DYT-111" target="EL7Et4fL0F2UAVuM8DYT-119" edge="1">
          <mxGeometry width="50" height="50" relative="1" as="geometry">
            <mxPoint x="475" y="735" as="sourcePoint" />
            <mxPoint x="721" y="617" as="targetPoint" />
          </mxGeometry>
        </mxCell>
        <mxCell id="EL7Et4fL0F2UAVuM8DYT-115" value="" style="endArrow=classic;html=1;rounded=0;exitX=0.788;exitY=0.25;exitDx=0;exitDy=0;fillColor=#d5e8d4;strokeColor=#82b366;exitPerimeter=0;" parent="1" source="EL7Et4fL0F2UAVuM8DYT-109" target="EL7Et4fL0F2UAVuM8DYT-126" edge="1">
          <mxGeometry width="50" height="50" relative="1" as="geometry">
            <mxPoint x="750.0037500000001" y="90.15625" as="sourcePoint" />
            <mxPoint x="725.1600000000001" y="397" as="targetPoint" />
            <Array as="points" />
          </mxGeometry>
        </mxCell>
        <mxCell id="EL7Et4fL0F2UAVuM8DYT-116" value="reset_timer_expired()" style="text;html=1;align=center;verticalAlign=middle;resizable=0;points=[];autosize=1;strokeColor=#d79b00;fillColor=#ffe6cc;" parent="1" vertex="1">
          <mxGeometry x="985.1600000000001" y="140" width="140" height="30" as="geometry" />
        </mxCell>
        <mxCell id="EL7Et4fL0F2UAVuM8DYT-117" value="reset_timer_expired()" style="text;html=1;align=center;verticalAlign=middle;resizable=0;points=[];autosize=1;strokeColor=#d79b00;fillColor=#ffe6cc;" parent="1" vertex="1">
          <mxGeometry x="965.1600000000001" y="470" width="140" height="30" as="geometry" />
        </mxCell>
        <mxCell id="EL7Et4fL0F2UAVuM8DYT-118" value="timer&lt;br&gt;expired" style="rhombus;whiteSpace=wrap;html=1;fillColor=#ffe6cc;strokeColor=#d79b00;" parent="1" vertex="1">
          <mxGeometry x="915.1600000000001" y="410" width="80" height="50" as="geometry" />
        </mxCell>
        <mxCell id="EL7Et4fL0F2UAVuM8DYT-119" value="ipv4&lt;br&gt;ipv6" style="rhombus;whiteSpace=wrap;html=1;fillColor=#ffe6cc;strokeColor=#d79b00;" parent="1" vertex="1">
          <mxGeometry x="915.1600000000001" y="310" width="80" height="50" as="geometry" />
        </mxCell>
        <mxCell id="EL7Et4fL0F2UAVuM8DYT-120" value="" style="endArrow=classic;html=1;rounded=0;exitX=1;exitY=0.5;exitDx=0;exitDy=0;entryX=0;entryY=0.5;entryDx=0;entryDy=0;fillColor=#ffe6cc;strokeColor=#d79b00;" parent="1" source="EL7Et4fL0F2UAVuM8DYT-118" target="EL7Et4fL0F2UAVuM8DYT-104" edge="1">
          <mxGeometry width="50" height="50" relative="1" as="geometry">
            <mxPoint x="1105.16" y="420" as="sourcePoint" />
            <mxPoint x="1155.1599999999999" y="370" as="targetPoint" />
            <Array as="points">
              <mxPoint x="1105.16" y="435" />
              <mxPoint x="1105.16" y="385" />
              <mxPoint x="1105.16" y="330" />
            </Array>
          </mxGeometry>
        </mxCell>
        <mxCell id="EL7Et4fL0F2UAVuM8DYT-135" value="Y" style="edgeLabel;html=1;align=center;verticalAlign=middle;resizable=0;points=[];" parent="EL7Et4fL0F2UAVuM8DYT-120" vertex="1" connectable="0">
          <mxGeometry x="-0.7504" y="1" relative="1" as="geometry">
            <mxPoint as="offset" />
          </mxGeometry>
        </mxCell>
        <mxCell id="EL7Et4fL0F2UAVuM8DYT-44" value="CosaDmlEthSetWanLinkStatusForWanManager()" style="text;html=1;align=center;verticalAlign=middle;resizable=0;points=[];autosize=1;strokeColor=#6c8ebf;fillColor=#dae8fc;" parent="1" vertex="1">
          <mxGeometry x="-460" y="265" width="290" height="30" as="geometry" />
        </mxCell>
        <mxCell id="EL7Et4fL0F2UAVuM8DYT-46" value="CosaDmlEthSetWanInterfaceNameForWanManager()" style="text;html=1;align=center;verticalAlign=middle;resizable=0;points=[];autosize=1;strokeColor=#6c8ebf;fillColor=#dae8fc;container=0;" parent="1" vertex="1">
          <mxGeometry x="-460" y="235" width="310" height="30" as="geometry" />
        </mxCell>
        <mxCell id="EL7Et4fL0F2UAVuM8DYT-123" value="" style="endArrow=classic;html=1;rounded=0;exitX=1;exitY=0.5;exitDx=0;exitDy=0;fillColor=#dae8fc;strokeColor=#6c8ebf;entryX=0.008;entryY=0.556;entryDx=0;entryDy=0;entryPerimeter=0;" parent="1" source="EL7Et4fL0F2UAVuM8DYT-51" target="EL7Et4fL0F2UAVuM8DYT-44" edge="1">
          <mxGeometry width="50" height="50" relative="1" as="geometry">
            <mxPoint x="-275" y="375" as="sourcePoint" />
            <mxPoint x="-225" y="325" as="targetPoint" />
          </mxGeometry>
        </mxCell>
        <mxCell id="vDHSL8h8AXeiBuy1sQO2-8" value="UP" style="edgeLabel;html=1;align=center;verticalAlign=middle;resizable=0;points=[];labelBackgroundColor=#dae8fc;" parent="EL7Et4fL0F2UAVuM8DYT-123" vertex="1" connectable="0">
          <mxGeometry x="-0.6649" y="-2" relative="1" as="geometry">
            <mxPoint as="offset" />
          </mxGeometry>
        </mxCell>
        <mxCell id="EL7Et4fL0F2UAVuM8DYT-127" value="" style="edgeStyle=orthogonalEdgeStyle;rounded=0;orthogonalLoop=1;jettySize=auto;html=1;fillColor=#ffe6cc;strokeColor=#d79b00;exitX=0.5;exitY=1;exitDx=0;exitDy=0;" parent="1" source="EL7Et4fL0F2UAVuM8DYT-126" target="EL7Et4fL0F2UAVuM8DYT-116" edge="1">
          <mxGeometry relative="1" as="geometry">
            <mxPoint x="955.1600000000001" y="130" as="targetPoint" />
            <Array as="points">
              <mxPoint x="925.1600000000001" y="150" />
            </Array>
          </mxGeometry>
        </mxCell>
        <mxCell id="EL7Et4fL0F2UAVuM8DYT-126" value="Active&lt;br&gt;Link" style="rhombus;whiteSpace=wrap;html=1;fillColor=#ffe6cc;strokeColor=#d79b00;" parent="1" vertex="1">
          <mxGeometry x="885.1600000000001" y="85" width="80" height="50" as="geometry" />
        </mxCell>
        <mxCell id="EL7Et4fL0F2UAVuM8DYT-128" value="" style="edgeStyle=orthogonalEdgeStyle;rounded=0;orthogonalLoop=1;jettySize=auto;html=1;fillColor=#ffe6cc;strokeColor=#d79b00;" parent="1" source="EL7Et4fL0F2UAVuM8DYT-126" target="EL7Et4fL0F2UAVuM8DYT-106" edge="1">
          <mxGeometry relative="1" as="geometry">
            <mxPoint x="925.1600000000001" y="150" as="sourcePoint" />
            <mxPoint x="1065.16" y="130" as="targetPoint" />
            <Array as="points">
              <mxPoint x="925.1600000000001" y="180" />
              <mxPoint x="995.1600000000001" y="180" />
            </Array>
          </mxGeometry>
        </mxCell>
        <mxCell id="EL7Et4fL0F2UAVuM8DYT-132" value="Y" style="edgeLabel;html=1;align=center;verticalAlign=middle;resizable=0;points=[];" parent="EL7Et4fL0F2UAVuM8DYT-128" vertex="1" connectable="0">
          <mxGeometry x="-0.0224" y="-3" relative="1" as="geometry">
            <mxPoint x="-7" y="-39" as="offset" />
          </mxGeometry>
        </mxCell>
        <mxCell id="EL7Et4fL0F2UAVuM8DYT-129" value="Active&lt;br&gt;Link" style="rhombus;whiteSpace=wrap;html=1;fillColor=#ffe6cc;strokeColor=#d79b00;" parent="1" vertex="1">
          <mxGeometry x="915.1600000000001" y="250" width="80" height="50" as="geometry" />
        </mxCell>
        <mxCell id="EL7Et4fL0F2UAVuM8DYT-130" value="" style="edgeStyle=orthogonalEdgeStyle;rounded=0;orthogonalLoop=1;jettySize=auto;html=1;fillColor=#ffe6cc;strokeColor=#d79b00;exitX=1;exitY=0.5;exitDx=0;exitDy=0;" parent="1" source="EL7Et4fL0F2UAVuM8DYT-129" target="EL7Et4fL0F2UAVuM8DYT-103" edge="1">
          <mxGeometry relative="1" as="geometry">
            <mxPoint x="935.1600000000001" y="120" as="sourcePoint" />
            <mxPoint x="935.1600000000001" y="220" as="targetPoint" />
            <Array as="points">
              <mxPoint x="1055.16" y="275" />
            </Array>
          </mxGeometry>
        </mxCell>
        <mxCell id="EL7Et4fL0F2UAVuM8DYT-131" value="N" style="edgeLabel;html=1;align=center;verticalAlign=middle;resizable=0;points=[];" parent="EL7Et4fL0F2UAVuM8DYT-130" vertex="1" connectable="0">
          <mxGeometry x="-0.666" relative="1" as="geometry">
            <mxPoint x="5" y="-15" as="offset" />
          </mxGeometry>
        </mxCell>
        <mxCell id="EL7Et4fL0F2UAVuM8DYT-133" value="" style="endArrow=classic;html=1;rounded=0;exitX=0;exitY=0.5;exitDx=0;exitDy=0;fillColor=#ffe6cc;strokeColor=#d79b00;" parent="1" source="EL7Et4fL0F2UAVuM8DYT-119" target="EL7Et4fL0F2UAVuM8DYT-108" edge="1">
          <mxGeometry width="50" height="50" relative="1" as="geometry">
            <mxPoint x="875.1600000000001" y="410" as="sourcePoint" />
            <mxPoint x="925.1600000000001" y="360" as="targetPoint" />
            <Array as="points">
              <mxPoint x="875.1600000000001" y="335" />
              <mxPoint x="875.1600000000001" y="520" />
            </Array>
          </mxGeometry>
        </mxCell>
        <mxCell id="EL7Et4fL0F2UAVuM8DYT-134" value="Y" style="edgeLabel;html=1;align=center;verticalAlign=middle;resizable=0;points=[];" parent="EL7Et4fL0F2UAVuM8DYT-133" vertex="1" connectable="0">
          <mxGeometry x="-0.7709" relative="1" as="geometry">
            <mxPoint x="16" y="-10" as="offset" />
          </mxGeometry>
        </mxCell>
        <mxCell id="EL7Et4fL0F2UAVuM8DYT-136" value="" style="endArrow=classic;html=1;rounded=0;exitX=0.5;exitY=1;exitDx=0;exitDy=0;fillColor=#ffe6cc;strokeColor=#d79b00;" parent="1" source="EL7Et4fL0F2UAVuM8DYT-118" target="EL7Et4fL0F2UAVuM8DYT-117" edge="1">
          <mxGeometry width="50" height="50" relative="1" as="geometry">
            <mxPoint x="955.1600000000001" y="480" as="sourcePoint" />
            <mxPoint x="1005.1600000000001" y="430" as="targetPoint" />
          </mxGeometry>
        </mxCell>
        <mxCell id="EL7Et4fL0F2UAVuM8DYT-137" value="" style="endArrow=classic;html=1;rounded=0;entryX=0.5;entryY=0;entryDx=0;entryDy=0;fillColor=#ffe6cc;strokeColor=#d79b00;exitX=0.5;exitY=1;exitDx=0;exitDy=0;" parent="1" source="EL7Et4fL0F2UAVuM8DYT-118" target="EL7Et4fL0F2UAVuM8DYT-129" edge="1">
          <mxGeometry width="50" height="50" relative="1" as="geometry">
            <mxPoint x="955.1600000000001" y="410" as="sourcePoint" />
            <mxPoint x="1015.1600000000001" y="440" as="targetPoint" />
            <Array as="points">
              <mxPoint x="955.1600000000001" y="490" />
              <mxPoint x="885.1600000000001" y="490" />
              <mxPoint x="885.1600000000001" y="430" />
              <mxPoint x="885.1600000000001" y="230" />
              <mxPoint x="955.1600000000001" y="230" />
            </Array>
          </mxGeometry>
        </mxCell>
        <mxCell id="EL7Et4fL0F2UAVuM8DYT-138" value="single&lt;br&gt;profile" style="rhombus;whiteSpace=wrap;html=1;fillColor=#ffe6cc;strokeColor=#d79b00;" parent="1" vertex="1">
          <mxGeometry x="915.1600000000001" y="360" width="80" height="50" as="geometry" />
        </mxCell>
        <mxCell id="EL7Et4fL0F2UAVuM8DYT-139" value="" style="endArrow=classic;html=1;rounded=0;exitX=0;exitY=0.5;exitDx=0;exitDy=0;entryX=0.5;entryY=0;entryDx=0;entryDy=0;fillColor=#ffe6cc;strokeColor=#d79b00;" parent="1" source="EL7Et4fL0F2UAVuM8DYT-138" target="EL7Et4fL0F2UAVuM8DYT-129" edge="1">
          <mxGeometry width="50" height="50" relative="1" as="geometry">
            <mxPoint x="1055.16" y="350" as="sourcePoint" />
            <mxPoint x="1105.16" y="300" as="targetPoint" />
            <Array as="points">
              <mxPoint x="885.1600000000001" y="385" />
              <mxPoint x="885.1600000000001" y="230" />
              <mxPoint x="955.1600000000001" y="230" />
            </Array>
          </mxGeometry>
        </mxCell>
        <mxCell id="EL7Et4fL0F2UAVuM8DYT-140" value="Y" style="edgeLabel;html=1;align=center;verticalAlign=middle;resizable=0;points=[];" parent="EL7Et4fL0F2UAVuM8DYT-139" vertex="1" connectable="0">
          <mxGeometry x="-0.8521" y="-2" relative="1" as="geometry">
            <mxPoint x="5" y="12" as="offset" />
          </mxGeometry>
        </mxCell>
        <mxCell id="EL7Et4fL0F2UAVuM8DYT-144" value="" style="endArrow=classic;html=1;rounded=0;entryX=0.5;entryY=0;entryDx=0;entryDy=0;fillColor=#ffe6cc;strokeColor=#d79b00;" parent="1" target="EL7Et4fL0F2UAVuM8DYT-105" edge="1">
          <mxGeometry width="50" height="50" relative="1" as="geometry">
            <mxPoint x="1300.1599999999999" y="400" as="sourcePoint" />
            <mxPoint x="1385.1599999999999" y="440" as="targetPoint" />
          </mxGeometry>
        </mxCell>
        <mxCell id="EL7Et4fL0F2UAVuM8DYT-145" value="X_RDK_WanManager.CPEInterface.1.Wan.Refresh" style="shape=parallelogram;perimeter=parallelogramPerimeter;whiteSpace=wrap;html=1;fixedSize=1;fillColor=#d5e8d4;strokeColor=#82b366;strokeWidth=3;" parent="1" vertex="1">
          <mxGeometry x="40" y="855" width="380" height="20" as="geometry" />
        </mxCell>
        <mxCell id="EL7Et4fL0F2UAVuM8DYT-146" value="ProfileHunter_RdkBus_SetWanRefresh" style="text;html=1;align=center;verticalAlign=middle;resizable=0;points=[];autosize=1;strokeColor=#d79b00;fillColor=#ffe6cc;" parent="1" vertex="1">
          <mxGeometry x="1235.1599999999999" y="360" width="230" height="30" as="geometry" />
        </mxCell>
        <mxCell id="EL7Et4fL0F2UAVuM8DYT-147" value="" style="endArrow=classic;html=1;rounded=0;fillColor=#ffe6cc;strokeColor=#d79b00;" parent="1" source="EL7Et4fL0F2UAVuM8DYT-146" target="EL7Et4fL0F2UAVuM8DYT-145" edge="1">
          <mxGeometry width="50" height="50" relative="1" as="geometry">
            <mxPoint x="1390" y="920" as="sourcePoint" />
            <mxPoint x="1440" y="870" as="targetPoint" />
            <Array as="points">
              <mxPoint x="1760" y="370" />
              <mxPoint x="1760" y="970" />
              <mxPoint x="230" y="970" />
            </Array>
          </mxGeometry>
        </mxCell>
        <mxCell id="EL7Et4fL0F2UAVuM8DYT-148" value="X_RDK_VlanManager.Configuration.&lt;br&gt;VLANId" style="shape=parallelogram;perimeter=parallelogramPerimeter;whiteSpace=wrap;html=1;fixedSize=1;fillColor=#fff2cc;strokeColor=#d6b656;fillStyle=auto;strokeWidth=3;" parent="1" vertex="1">
          <mxGeometry x="-475" y="675" width="320" height="90" as="geometry" />
        </mxCell>
        <mxCell id="EL7Et4fL0F2UAVuM8DYT-149" value="PSM&lt;br&gt;&lt;br&gt;CUSTID 8&lt;br&gt;PROFILE A&lt;br&gt;PROFILE B&lt;br&gt;" style="rounded=1;whiteSpace=wrap;html=1;fillColor=#e1d5e7;strokeColor=#9673a6;" parent="1" vertex="1">
          <mxGeometry x="1575.1599999999999" y="90" width="120" height="150" as="geometry" />
        </mxCell>
        <mxCell id="EL7Et4fL0F2UAVuM8DYT-150" value="" style="endArrow=classic;html=1;rounded=0;fillColor=#e1d5e7;strokeColor=#9673a6;" parent="1" source="EL7Et4fL0F2UAVuM8DYT-149" target="EL7Et4fL0F2UAVuM8DYT-142" edge="1">
          <mxGeometry width="50" height="50" relative="1" as="geometry">
            <mxPoint x="1645.1599999999999" y="510" as="sourcePoint" />
            <mxPoint x="1695.1599999999999" y="460" as="targetPoint" />
          </mxGeometry>
        </mxCell>
        <mxCell id="EL7Et4fL0F2UAVuM8DYT-151" value="" style="endArrow=classic;html=1;rounded=0;fillColor=#ffe6cc;strokeColor=#d79b00;" parent="1" source="EL7Et4fL0F2UAVuM8DYT-142" target="EL7Et4fL0F2UAVuM8DYT-148" edge="1">
          <mxGeometry width="50" height="50" relative="1" as="geometry">
            <mxPoint x="1255" y="650" as="sourcePoint" />
            <mxPoint x="240" y="870" as="targetPoint" />
            <Array as="points">
              <mxPoint x="1800" y="320" />
              <mxPoint x="1800" y="1030" />
              <mxPoint x="-220" y="1030" />
            </Array>
          </mxGeometry>
        </mxCell>
        <mxCell id="EL7Et4fL0F2UAVuM8DYT-142" value="apply_profile()" style="text;html=1;align=center;verticalAlign=middle;resizable=0;points=[];autosize=1;strokeColor=#d79b00;fillColor=#ffe6cc;" parent="1" vertex="1">
          <mxGeometry x="1235.1599999999999" y="310" width="100" height="30" as="geometry" />
        </mxCell>
        <mxCell id="EL7Et4fL0F2UAVuM8DYT-152" value="disabled" style="rhombus;whiteSpace=wrap;html=1;fillColor=#ffe6cc;strokeColor=#d79b00;" parent="1" vertex="1">
          <mxGeometry x="865.1600000000001" y="-152.5" width="80" height="50" as="geometry" />
        </mxCell>
        <mxCell id="EL7Et4fL0F2UAVuM8DYT-153" value="configured" style="rhombus;whiteSpace=wrap;html=1;fillColor=#ffe6cc;strokeColor=#d79b00;" parent="1" vertex="1">
          <mxGeometry x="955.1600000000001" y="-152.5" width="80" height="50" as="geometry" />
        </mxCell>
        <mxCell id="EL7Et4fL0F2UAVuM8DYT-154" value="0 profiles" style="rhombus;whiteSpace=wrap;html=1;fillColor=#ffe6cc;strokeColor=#d79b00;" parent="1" vertex="1">
          <mxGeometry x="1045.16" y="-152.5" width="80" height="50" as="geometry" />
        </mxCell>
        <mxCell id="EL7Et4fL0F2UAVuM8DYT-156" value="wanmanager enabled" style="rhombus;whiteSpace=wrap;html=1;fillColor=#ffe6cc;strokeColor=#d79b00;" parent="1" vertex="1">
          <mxGeometry x="885.1600000000001" y="-60" width="80" height="50" as="geometry" />
        </mxCell>
        <mxCell id="EL7Et4fL0F2UAVuM8DYT-157" value="" style="endArrow=classic;html=1;rounded=0;exitX=0.5;exitY=1;exitDx=0;exitDy=0;fillColor=#ffe6cc;strokeColor=#d79b00;" parent="1" source="EL7Et4fL0F2UAVuM8DYT-156" edge="1">
          <mxGeometry width="50" height="50" relative="1" as="geometry">
            <mxPoint x="985.1600000000001" y="50" as="sourcePoint" />
            <mxPoint x="925.1600000000001" y="60" as="targetPoint" />
          </mxGeometry>
        </mxCell>
        <mxCell id="EL7Et4fL0F2UAVuM8DYT-158" value="Y" style="edgeLabel;html=1;align=center;verticalAlign=middle;resizable=0;points=[];" parent="EL7Et4fL0F2UAVuM8DYT-157" vertex="1" connectable="0">
          <mxGeometry x="-0.407" y="4" relative="1" as="geometry">
            <mxPoint x="-14" y="-1" as="offset" />
          </mxGeometry>
        </mxCell>
        <mxCell id="EL7Et4fL0F2UAVuM8DYT-159" value="" style="endArrow=classic;html=1;rounded=0;fillColor=#ffe6cc;strokeColor=#d79b00;" parent="1" source="EL7Et4fL0F2UAVuM8DYT-156" target="EL7Et4fL0F2UAVuM8DYT-142" edge="1">
          <mxGeometry width="50" height="50" relative="1" as="geometry">
            <mxPoint x="1045.16" y="30" as="sourcePoint" />
            <mxPoint x="1095.16" y="-20" as="targetPoint" />
            <Array as="points">
              <mxPoint x="1285.1599999999999" y="-35" />
            </Array>
          </mxGeometry>
        </mxCell>
        <mxCell id="EL7Et4fL0F2UAVuM8DYT-161" value="N" style="edgeLabel;html=1;align=center;verticalAlign=middle;resizable=0;points=[];" parent="EL7Et4fL0F2UAVuM8DYT-159" vertex="1" connectable="0">
          <mxGeometry x="-0.9199" relative="1" as="geometry">
            <mxPoint as="offset" />
          </mxGeometry>
        </mxCell>
        <mxCell id="EL7Et4fL0F2UAVuM8DYT-160" value="ProfileHunter_RdkBus_SetWanManager_Enable()" style="text;html=1;align=center;verticalAlign=middle;resizable=0;points=[];autosize=1;strokeColor=#d79b00;fillColor=#ffe6cc;" parent="1" vertex="1">
          <mxGeometry x="975.1600000000001" y="-5" width="290" height="30" as="geometry" />
        </mxCell>
        <mxCell id="EL7Et4fL0F2UAVuM8DYT-162" value="" style="endArrow=classic;html=1;rounded=0;exitX=1;exitY=0.5;exitDx=0;exitDy=0;fillColor=#ffe6cc;strokeColor=#d79b00;" parent="1" source="EL7Et4fL0F2UAVuM8DYT-156" target="EL7Et4fL0F2UAVuM8DYT-160" edge="1">
          <mxGeometry width="50" height="50" relative="1" as="geometry">
            <mxPoint x="1045.16" y="10" as="sourcePoint" />
            <mxPoint x="1095.16" y="-40" as="targetPoint" />
            <Array as="points">
              <mxPoint x="1120.1599999999999" y="-35" />
            </Array>
          </mxGeometry>
        </mxCell>
        <mxCell id="EL7Et4fL0F2UAVuM8DYT-164" value="" style="endArrow=classic;html=1;rounded=0;entryX=0.547;entryY=0.994;entryDx=0;entryDy=0;entryPerimeter=0;fillColor=#ffe6cc;strokeColor=#d79b00;" parent="1" source="EL7Et4fL0F2UAVuM8DYT-160" target="EL7Et4fL0F2UAVuM8DYT-102" edge="1">
          <mxGeometry width="50" height="50" relative="1" as="geometry">
            <mxPoint x="1105.16" y="70" as="sourcePoint" />
            <mxPoint x="1155.1599999999999" y="20" as="targetPoint" />
          </mxGeometry>
        </mxCell>
        <mxCell id="JB-XBUJDA3JaLd-VkqM5-1" value="" style="endArrow=classic;html=1;rounded=0;fillColor=#f8cecc;strokeColor=#b85450;" parent="1" source="EL7Et4fL0F2UAVuM8DYT-98" target="EL7Et4fL0F2UAVuM8DYT-92" edge="1">
          <mxGeometry width="50" height="50" relative="1" as="geometry">
            <mxPoint x="550" y="320" as="sourcePoint" />
            <mxPoint x="600" y="270" as="targetPoint" />
          </mxGeometry>
        </mxCell>
        <mxCell id="JB-XBUJDA3JaLd-VkqM5-2" value="FALSE" style="edgeLabel;html=1;align=center;verticalAlign=middle;resizable=0;points=[];" parent="JB-XBUJDA3JaLd-VkqM5-1" vertex="1" connectable="0">
          <mxGeometry x="-0.1384" y="-2" relative="1" as="geometry">
            <mxPoint x="9" y="-10" as="offset" />
          </mxGeometry>
        </mxCell>
        <mxCell id="JB-XBUJDA3JaLd-VkqM5-4" value="&lt;span style=&quot;color: rgb(0, 0, 0); font-family: Helvetica; font-size: 12px; font-style: normal; font-variant-ligatures: normal; font-variant-caps: normal; font-weight: 400; letter-spacing: normal; orphans: 2; text-indent: 0px; text-transform: none; widows: 2; word-spacing: 0px; -webkit-text-stroke-width: 0px; text-decoration-thickness: initial; text-decoration-style: initial; text-decoration-color: initial; float: none; display: inline !important;&quot;&gt;vlan_eth_hal_createInterface()&lt;/span&gt;" style="text;whiteSpace=wrap;html=1;align=center;verticalAlign=middle;strokeColor=#d6b656;fillColor=#fff2cc;fillStyle=solid;labelBackgroundColor=#fff2cc;" parent="1" vertex="1">
          <mxGeometry x="-805" y="755" width="200" height="40" as="geometry" />
        </mxCell>
        <mxCell id="JB-XBUJDA3JaLd-VkqM5-5" value="CosaEthManager_Start_StateMachine()" style="text;html=1;align=center;verticalAlign=middle;resizable=0;points=[];autosize=1;strokeColor=#6c8ebf;fillColor=#dae8fc;" parent="1" vertex="1">
          <mxGeometry x="-525" width="240" height="30" as="geometry" />
        </mxCell>
        <mxCell id="JB-XBUJDA3JaLd-VkqM5-6" value="" style="endArrow=classic;html=1;rounded=0;exitX=0.006;exitY=0.5;exitDx=0;exitDy=0;exitPerimeter=0;fillColor=#dae8fc;strokeColor=#6c8ebf;" parent="1" source="JB-XBUJDA3JaLd-VkqM5-5" target="EL7Et4fL0F2UAVuM8DYT-57" edge="1">
          <mxGeometry width="50" height="50" relative="1" as="geometry">
            <mxPoint x="-545" y="165" as="sourcePoint" />
            <mxPoint x="-495" y="115" as="targetPoint" />
            <Array as="points">
              <mxPoint x="-650" y="15" />
            </Array>
          </mxGeometry>
        </mxCell>
        <mxCell id="JB-XBUJDA3JaLd-VkqM5-7" value="" style="endArrow=classic;html=1;rounded=0;entryX=0.25;entryY=0;entryDx=0;entryDy=0;fillColor=#dae8fc;strokeColor=#6c8ebf;" parent="1" source="JB-XBUJDA3JaLd-VkqM5-8" target="EL7Et4fL0F2UAVuM8DYT-52" edge="1">
          <mxGeometry width="50" height="50" relative="1" as="geometry">
            <mxPoint x="-725" y="415" as="sourcePoint" />
            <mxPoint x="-675" y="365" as="targetPoint" />
            <Array as="points">
              <mxPoint x="-652" y="425" />
              <mxPoint x="-795" y="425" />
              <mxPoint x="-795" y="85" />
              <mxPoint x="-702" y="85" />
            </Array>
          </mxGeometry>
        </mxCell>
        <mxCell id="JB-XBUJDA3JaLd-VkqM5-8" value="upstream" style="rhombus;whiteSpace=wrap;html=1;fillColor=#dae8fc;strokeColor=#6c8ebf;" parent="1" vertex="1">
          <mxGeometry x="-690" y="345" width="75" height="50" as="geometry" />
        </mxCell>
        <mxCell id="JB-XBUJDA3JaLd-VkqM5-11" value="&lt;font style=&quot;font-size: 12px;&quot;&gt;dhcpv4_event_data()&lt;br style=&quot;border-color: var(--border-color);&quot;&gt;&lt;span style=&quot;background-color: rgb(213, 232, 212);&quot;&gt;dhcpv6_event_data()&lt;/span&gt;&lt;/font&gt;" style="text;html=1;align=center;verticalAlign=middle;resizable=0;points=[];autosize=1;strokeColor=#82b366;fillColor=#d5e8d4;" parent="1" vertex="1">
          <mxGeometry x="170" y="490" width="140" height="40" as="geometry" />
        </mxCell>
        <mxCell id="JisptBNUSfxg09JHxxqs-38" value="" style="edgeStyle=orthogonalEdgeStyle;rounded=0;orthogonalLoop=1;jettySize=auto;html=1;fillColor=#d5e8d4;strokeColor=#82b366;" parent="1" source="JB-XBUJDA3JaLd-VkqM5-12" target="EL7Et4fL0F2UAVuM8DYT-21" edge="1">
          <mxGeometry relative="1" as="geometry">
            <Array as="points">
              <mxPoint x="105" y="290" />
              <mxPoint x="105" y="290" />
            </Array>
          </mxGeometry>
        </mxCell>
        <mxCell id="JB-XBUJDA3JaLd-VkqM5-12" value="iface state machine" style="rounded=1;whiteSpace=wrap;html=1;fillColor=#d5e8d4;strokeColor=#82b366;fontStyle=1" parent="1" vertex="1">
          <mxGeometry x="45" y="270" width="120" height="20" as="geometry" />
        </mxCell>
        <mxCell id="JB-XBUJDA3JaLd-VkqM5-13" value="policy state machine&lt;br&gt;WanMgr_FailOverThread()&lt;br&gt;WanMgr_AutoWanSelectionProcess&lt;br&gt;&lt;span style=&quot;font-weight: normal;&quot;&gt;wanmgr_policy_auto_impl.c&lt;/span&gt;" style="rounded=1;whiteSpace=wrap;html=1;fillColor=#d5e8d4;strokeColor=#82b366;fontStyle=1" parent="1" vertex="1">
          <mxGeometry x="60" y="-605" width="380" height="70" as="geometry" />
        </mxCell>
        <mxCell id="JisptBNUSfxg09JHxxqs-1" value="WanMgr_RdkBus_updateInterfaceUpstreamFlag() Upstream[&lt;b&gt;Up&lt;/b&gt;]" style="text;html=1;align=center;verticalAlign=middle;resizable=0;points=[];autosize=1;strokeColor=#82b366;fillColor=#d5e8d4;" parent="1" vertex="1">
          <mxGeometry y="305" width="370" height="30" as="geometry" />
        </mxCell>
        <mxCell id="JisptBNUSfxg09JHxxqs-4" value="" style="endArrow=classic;html=1;rounded=0;fillColor=#d5e8d4;strokeColor=#82b366;" parent="1" source="JisptBNUSfxg09JHxxqs-1" target="EL7Et4fL0F2UAVuM8DYT-62" edge="1">
          <mxGeometry width="50" height="50" relative="1" as="geometry">
            <mxPoint x="-20" y="190" as="sourcePoint" />
            <mxPoint x="30" y="140" as="targetPoint" />
            <Array as="points">
              <mxPoint x="-40" y="320" />
              <mxPoint x="-40" y="125" />
            </Array>
          </mxGeometry>
        </mxCell>
        <mxCell id="JisptBNUSfxg09JHxxqs-5" value="" style="endArrow=classic;html=1;rounded=0;exitX=0.003;exitY=0.469;exitDx=0;exitDy=0;exitPerimeter=0;fillColor=#d5e8d4;strokeColor=#82b366;" parent="1" source="JisptBNUSfxg09JHxxqs-2" target="EL7Et4fL0F2UAVuM8DYT-62" edge="1">
          <mxGeometry width="50" height="50" relative="1" as="geometry">
            <mxPoint x="74" y="170" as="sourcePoint" />
            <mxPoint x="-112" y="153" as="targetPoint" />
            <Array as="points">
              <mxPoint x="-70" y="754" />
              <mxPoint x="-70" y="144" />
            </Array>
          </mxGeometry>
        </mxCell>
        <mxCell id="JisptBNUSfxg09JHxxqs-16" value="" style="edgeStyle=orthogonalEdgeStyle;rounded=0;orthogonalLoop=1;jettySize=auto;html=1;entryX=0.5;entryY=0;entryDx=0;entryDy=0;fillColor=#d5e8d4;strokeColor=#82b366;" parent="1" source="JisptBNUSfxg09JHxxqs-6" target="JisptBNUSfxg09JHxxqs-7" edge="1">
          <mxGeometry relative="1" as="geometry" />
        </mxCell>
        <mxCell id="JisptBNUSfxg09JHxxqs-6" value="SELECTING" style="shape=process;whiteSpace=wrap;html=1;backgroundOutline=1;fillColor=#d5e8d4;strokeColor=#82b366;strokeWidth=2;" parent="1" vertex="1">
          <mxGeometry x="90" y="-520" width="290" height="20" as="geometry" />
        </mxCell>
        <mxCell id="JisptBNUSfxg09JHxxqs-7" value="WAITING" style="shape=process;whiteSpace=wrap;html=1;backgroundOutline=1;fillColor=#d5e8d4;strokeColor=#82b366;verticalAlign=top;strokeWidth=2;" parent="1" vertex="1">
          <mxGeometry x="90" y="-480" width="290" height="120" as="geometry" />
        </mxCell>
        <mxCell id="JisptBNUSfxg09JHxxqs-10" value="SCANNING" style="shape=process;whiteSpace=wrap;html=1;backgroundOutline=1;fillColor=#d5e8d4;strokeColor=#82b366;verticalAlign=top;strokeWidth=2;" parent="1" vertex="1">
          <mxGeometry x="90" y="-275" width="290" height="125" as="geometry" />
        </mxCell>
        <mxCell id="JisptBNUSfxg09JHxxqs-12" value="CosaDmlEthSetPhyPathForWanManager()" style="text;html=1;align=center;verticalAlign=middle;resizable=0;points=[];autosize=1;strokeColor=#6c8ebf;fillColor=#dae8fc;" parent="1" vertex="1">
          <mxGeometry x="-505" y="-125" width="250" height="30" as="geometry" />
        </mxCell>
        <mxCell id="JisptBNUSfxg09JHxxqs-13" value="Phy&lt;br&gt;Status" style="rhombus;whiteSpace=wrap;html=1;fillColor=#d5e8d4;strokeColor=#82b366;" parent="1" vertex="1">
          <mxGeometry x="182.5" y="-450" width="75" height="40" as="geometry" />
        </mxCell>
        <mxCell id="JisptBNUSfxg09JHxxqs-14" value="" style="endArrow=classic;html=1;rounded=0;fillColor=#d5e8d4;strokeColor=#82b366;" parent="1" source="EL7Et4fL0F2UAVuM8DYT-7" target="JisptBNUSfxg09JHxxqs-13" edge="1">
          <mxGeometry width="50" height="50" relative="1" as="geometry">
            <mxPoint x="30" y="-430" as="sourcePoint" />
            <mxPoint x="440" y="-20" as="targetPoint" />
            <Array as="points">
              <mxPoint x="110" y="-430" />
              <mxPoint x="80" y="-430" />
            </Array>
          </mxGeometry>
        </mxCell>
        <mxCell id="JisptBNUSfxg09JHxxqs-15" value="Timeout" style="rhombus;whiteSpace=wrap;html=1;fillColor=#d5e8d4;strokeColor=#82b366;" parent="1" vertex="1">
          <mxGeometry x="182.5" y="-410" width="75" height="40" as="geometry" />
        </mxCell>
        <mxCell id="JisptBNUSfxg09JHxxqs-17" value="" style="endArrow=classic;html=1;rounded=0;exitX=0;exitY=0.5;exitDx=0;exitDy=0;entryX=0;entryY=0.5;entryDx=0;entryDy=0;fillColor=#d5e8d4;strokeColor=#82b366;" parent="1" source="JisptBNUSfxg09JHxxqs-15" target="JisptBNUSfxg09JHxxqs-6" edge="1">
          <mxGeometry width="50" height="50" relative="1" as="geometry">
            <mxPoint x="40" y="-450" as="sourcePoint" />
            <mxPoint x="90" y="-500" as="targetPoint" />
            <Array as="points">
              <mxPoint x="70" y="-390" />
              <mxPoint x="70" y="-510" />
            </Array>
          </mxGeometry>
        </mxCell>
        <mxCell id="JisptBNUSfxg09JHxxqs-19" value="" style="endArrow=classic;html=1;rounded=0;exitX=1;exitY=0.5;exitDx=0;exitDy=0;fillColor=#d5e8d4;strokeColor=#82b366;entryX=0.75;entryY=0;entryDx=0;entryDy=0;" parent="1" source="JisptBNUSfxg09JHxxqs-13" target="JisptBNUSfxg09JHxxqs-10" edge="1">
          <mxGeometry width="50" height="50" relative="1" as="geometry">
            <mxPoint x="70" y="-350" as="sourcePoint" />
            <mxPoint x="340" y="-280" as="targetPoint" />
            <Array as="points">
              <mxPoint x="310" y="-430" />
            </Array>
          </mxGeometry>
        </mxCell>
        <mxCell id="JisptBNUSfxg09JHxxqs-20" value="WanMgr_StartIfaceStateMachine()" style="text;html=1;align=center;verticalAlign=middle;resizable=0;points=[];autosize=1;strokeColor=#82b366;fillColor=#d5e8d4;" parent="1" vertex="1">
          <mxGeometry x="115" y="-340" width="210" height="30" as="geometry" />
        </mxCell>
        <mxCell id="JisptBNUSfxg09JHxxqs-21" value="" style="endArrow=classic;html=1;rounded=0;entryX=1;entryY=0.5;entryDx=0;entryDy=0;fillColor=#d5e8d4;strokeColor=#82b366;" parent="1" source="JisptBNUSfxg09JHxxqs-20" target="JB-XBUJDA3JaLd-VkqM5-12" edge="1">
          <mxGeometry width="50" height="50" relative="1" as="geometry">
            <mxPoint x="430" y="90" as="sourcePoint" />
            <mxPoint x="480" y="40" as="targetPoint" />
            <Array as="points">
              <mxPoint x="480" y="-325" />
              <mxPoint x="480" y="280" />
            </Array>
          </mxGeometry>
        </mxCell>
        <mxCell id="JisptBNUSfxg09JHxxqs-22" value="Wan&lt;br&gt;Status" style="rhombus;whiteSpace=wrap;html=1;fillColor=#d5e8d4;strokeColor=#82b366;" parent="1" vertex="1">
          <mxGeometry x="192.5" y="-240" width="75" height="40" as="geometry" />
        </mxCell>
        <mxCell id="JisptBNUSfxg09JHxxqs-25" value="" style="edgeStyle=orthogonalEdgeStyle;rounded=0;orthogonalLoop=1;jettySize=auto;html=1;fillColor=#d5e8d4;strokeColor=#82b366;" parent="1" source="JisptBNUSfxg09JHxxqs-23" target="JisptBNUSfxg09JHxxqs-24" edge="1">
          <mxGeometry relative="1" as="geometry" />
        </mxCell>
        <mxCell id="JisptBNUSfxg09JHxxqs-23" value="Timeout" style="rhombus;whiteSpace=wrap;html=1;fillColor=#d5e8d4;strokeColor=#82b366;" parent="1" vertex="1">
          <mxGeometry x="192.5" y="-200" width="75" height="40" as="geometry" />
        </mxCell>
        <mxCell id="JisptBNUSfxg09JHxxqs-24" value="TEARDOWN" style="shape=process;whiteSpace=wrap;html=1;backgroundOutline=1;fillColor=#d5e8d4;strokeColor=#82b366;verticalAlign=top;strokeWidth=2;" parent="1" vertex="1">
          <mxGeometry x="85" y="-80" width="290" height="100" as="geometry" />
        </mxCell>
        <mxCell id="JisptBNUSfxg09JHxxqs-26" value="pActiveInterface-&amp;gt;SelectionStatus = WAN_IFACE_NOT_SELECTED;" style="text;html=1;align=center;verticalAlign=middle;resizable=0;points=[];autosize=1;strokeColor=#82b366;fillColor=#d5e8d4;" parent="1" vertex="1">
          <mxGeometry x="55" y="-130" width="390" height="30" as="geometry" />
        </mxCell>
        <mxCell id="JisptBNUSfxg09JHxxqs-27" value="IFace&lt;br&gt;Selected" style="rhombus;whiteSpace=wrap;html=1;fillColor=#d5e8d4;strokeColor=#82b366;" parent="1" vertex="1">
          <mxGeometry x="40" y="555" width="80" height="40" as="geometry" />
        </mxCell>
        <mxCell id="JisptBNUSfxg09JHxxqs-28" value="" style="endArrow=classic;html=1;rounded=0;exitX=0.999;exitY=0.357;exitDx=0;exitDy=0;exitPerimeter=0;fillColor=#d5e8d4;strokeColor=#82b366;" parent="1" source="JisptBNUSfxg09JHxxqs-26" target="JisptBNUSfxg09JHxxqs-27" edge="1">
          <mxGeometry width="50" height="50" relative="1" as="geometry">
            <mxPoint x="500" as="sourcePoint" />
            <mxPoint x="550" y="-50" as="targetPoint" />
            <Array as="points">
              <mxPoint x="550" y="-120" />
              <mxPoint x="550" y="575" />
            </Array>
          </mxGeometry>
        </mxCell>
        <mxCell id="JisptBNUSfxg09JHxxqs-29" value="ipv4&lt;br&gt;ipv6" style="rhombus;whiteSpace=wrap;html=1;fillColor=#d5e8d4;strokeColor=#82b366;" parent="1" vertex="1">
          <mxGeometry x="40" y="515" width="80" height="40" as="geometry" />
        </mxCell>
        <mxCell id="JisptBNUSfxg09JHxxqs-30" value="DECONFIGURING" style="shape=process;whiteSpace=wrap;html=1;backgroundOutline=1;fillColor=#d5e8d4;strokeColor=#82b366;strokeWidth=2;" parent="1" vertex="1">
          <mxGeometry y="800" width="140" height="20" as="geometry" />
        </mxCell>
        <mxCell id="JisptBNUSfxg09JHxxqs-31" value="" style="endArrow=classic;html=1;rounded=0;exitX=0;exitY=0.5;exitDx=0;exitDy=0;fillColor=#d5e8d4;strokeColor=#82b366;" parent="1" source="JisptBNUSfxg09JHxxqs-27" target="JisptBNUSfxg09JHxxqs-30" edge="1">
          <mxGeometry width="50" height="50" relative="1" as="geometry">
            <mxPoint x="-70" y="1170" as="sourcePoint" />
            <mxPoint x="-130" y="980" as="targetPoint" />
            <Array as="points">
              <mxPoint x="10" y="575" />
              <mxPoint x="10" y="780" />
            </Array>
          </mxGeometry>
        </mxCell>
        <mxCell id="JisptBNUSfxg09JHxxqs-32" value="WanManager_StopDhcpv4Client()&lt;br&gt;WanManager_StopDhcpv6Client()" style="text;html=1;align=center;verticalAlign=middle;resizable=0;points=[];autosize=1;strokeColor=#82b366;fillColor=#d5e8d4;" parent="1" vertex="1">
          <mxGeometry y="690" width="210" height="40" as="geometry" />
        </mxCell>
        <mxCell id="JisptBNUSfxg09JHxxqs-2" value="WanMgr_RdkBus_updateInterfaceUpstreamFlag() Upstream[&lt;b&gt;Down&lt;/b&gt;]" style="text;html=1;align=center;verticalAlign=middle;resizable=0;points=[];autosize=1;strokeColor=#82b366;fillColor=#d5e8d4;" parent="1" vertex="1">
          <mxGeometry y="740" width="390" height="30" as="geometry" />
        </mxCell>
        <mxCell id="JisptBNUSfxg09JHxxqs-35" value="" style="endArrow=classic;html=1;rounded=0;fillColor=#dae8fc;strokeColor=#6c8ebf;" parent="1" source="EL7Et4fL0F2UAVuM8DYT-62" target="JB-XBUJDA3JaLd-VkqM5-8" edge="1">
          <mxGeometry width="50" height="50" relative="1" as="geometry">
            <mxPoint x="-424.9000000000001" y="152.50000000000017" as="sourcePoint" />
            <mxPoint x="-605" y="370.17999999999995" as="targetPoint" />
            <Array as="points" />
          </mxGeometry>
        </mxCell>
        <mxCell id="JisptBNUSfxg09JHxxqs-36" value="UP = FALSE" style="edgeLabel;html=1;align=center;verticalAlign=middle;resizable=0;points=[];labelBackgroundColor=#dae8fc;" parent="JisptBNUSfxg09JHxxqs-35" vertex="1" connectable="0">
          <mxGeometry x="-0.7623" y="1" relative="1" as="geometry">
            <mxPoint x="35" y="8" as="offset" />
          </mxGeometry>
        </mxCell>
        <mxCell id="JisptBNUSfxg09JHxxqs-39" value="IFace&lt;br&gt;Statemachine&lt;br&gt;Running" style="rhombus;whiteSpace=wrap;html=1;fillColor=#d5e8d4;strokeColor=#82b366;" parent="1" vertex="1">
          <mxGeometry x="192.5" y="-55" width="75" height="65" as="geometry" />
        </mxCell>
        <mxCell id="JisptBNUSfxg09JHxxqs-40" value="" style="endArrow=classic;html=1;rounded=0;entryX=0;entryY=0.5;entryDx=0;entryDy=0;fillColor=#d5e8d4;strokeColor=#82b366;exitX=0.5;exitY=1;exitDx=0;exitDy=0;" parent="1" source="JisptBNUSfxg09JHxxqs-24" target="JisptBNUSfxg09JHxxqs-6" edge="1">
          <mxGeometry width="50" height="50" relative="1" as="geometry">
            <mxPoint x="150" y="80" as="sourcePoint" />
            <mxPoint x="200" y="30" as="targetPoint" />
            <Array as="points">
              <mxPoint x="230" y="40" />
              <mxPoint x="40" y="40" />
              <mxPoint x="40" y="-510" />
            </Array>
          </mxGeometry>
        </mxCell>
        <mxCell id="vDHSL8h8AXeiBuy1sQO2-1" value="" style="endArrow=classic;html=1;rounded=0;fillColor=#dae8fc;strokeColor=#6c8ebf;" parent="1" source="EL7Et4fL0F2UAVuM8DYT-2" target="JisptBNUSfxg09JHxxqs-12" edge="1">
          <mxGeometry width="50" height="50" relative="1" as="geometry">
            <mxPoint x="-225" y="-205" as="sourcePoint" />
            <mxPoint x="-175" y="-255" as="targetPoint" />
            <Array as="points">
              <mxPoint x="-205" y="-175" />
              <mxPoint x="-380" y="-175" />
            </Array>
          </mxGeometry>
        </mxCell>
        <mxCell id="vDHSL8h8AXeiBuy1sQO2-3" value="wan&lt;br&gt;status" style="rhombus;whiteSpace=wrap;html=1;fillColor=#dae8fc;strokeColor=#6c8ebf;" parent="1" vertex="1">
          <mxGeometry x="-690" y="225" width="75" height="50" as="geometry" />
        </mxCell>
        <mxCell id="vDHSL8h8AXeiBuy1sQO2-4" value="" style="endArrow=classic;html=1;rounded=0;exitX=0.5;exitY=0;exitDx=0;exitDy=0;fillColor=#dae8fc;strokeColor=#6c8ebf;" parent="1" source="EL7Et4fL0F2UAVuM8DYT-10" target="vDHSL8h8AXeiBuy1sQO2-3" edge="1">
          <mxGeometry width="50" height="50" relative="1" as="geometry">
            <mxPoint x="-265" y="385" as="sourcePoint" />
            <mxPoint x="-215" y="335" as="targetPoint" />
            <Array as="points">
              <mxPoint x="-285" y="355" />
            </Array>
          </mxGeometry>
        </mxCell>
        <mxCell id="vDHSL8h8AXeiBuy1sQO2-5" value="CosaDmlEthDeleteEthLink()" style="text;html=1;align=center;verticalAlign=middle;resizable=0;points=[];autosize=1;strokeColor=#6c8ebf;fillColor=#dae8fc;" parent="1" vertex="1">
          <mxGeometry x="-860" y="415" width="170" height="30" as="geometry" />
        </mxCell>
        <mxCell id="vDHSL8h8AXeiBuy1sQO2-6" value="" style="endArrow=classic;html=1;rounded=0;exitX=0.994;exitY=0.578;exitDx=0;exitDy=0;fillColor=#dae8fc;strokeColor=#6c8ebf;exitPerimeter=0;" parent="1" source="vDHSL8h8AXeiBuy1sQO2-5" target="EL7Et4fL0F2UAVuM8DYT-44" edge="1">
          <mxGeometry width="50" height="50" relative="1" as="geometry">
            <mxPoint x="-535" y="250" as="sourcePoint" />
            <mxPoint x="-448" y="292" as="targetPoint" />
            <Array as="points">
              <mxPoint x="-495" y="432" />
              <mxPoint x="-335" y="405" />
            </Array>
          </mxGeometry>
        </mxCell>
        <mxCell id="vDHSL8h8AXeiBuy1sQO2-7" value="DOWN" style="edgeLabel;html=1;align=center;verticalAlign=middle;resizable=0;points=[];labelBackgroundColor=#dae8fc;" parent="vDHSL8h8AXeiBuy1sQO2-6" vertex="1" connectable="0">
          <mxGeometry x="-0.469" y="1" relative="1" as="geometry">
            <mxPoint as="offset" />
          </mxGeometry>
        </mxCell>
        <mxCell id="vDHSL8h8AXeiBuy1sQO2-9" value="X_RDK_WanManager.CPEInterfaceNumberOfEntries&lt;br&gt;X_RDK_WanManager.CPEInterfaceNumberOfEntries.1.&lt;br&gt;X_RDK_WanManager.CPEInterfaceNumberOfEntries.2." style="shape=parallelogram;perimeter=parallelogramPerimeter;whiteSpace=wrap;html=1;fixedSize=1;fillColor=#d5e8d4;strokeColor=#82b366;strokeWidth=3;" parent="1" vertex="1">
          <mxGeometry x="-330" y="-630" width="345" height="65" as="geometry" />
        </mxCell>
        <mxCell id="vDHSL8h8AXeiBuy1sQO2-10" value="WanMgr_SetActiveLink()" style="text;html=1;align=center;verticalAlign=middle;resizable=0;points=[];autosize=1;strokeColor=#82b366;fillColor=#d5e8d4;" parent="1" vertex="1">
          <mxGeometry x="310" y="-235" width="160" height="30" as="geometry" />
        </mxCell>
        <mxCell id="vDHSL8h8AXeiBuy1sQO2-11" value="" style="endArrow=classic;html=1;rounded=0;fillColor=#d5e8d4;strokeColor=#82b366;" parent="1" source="JisptBNUSfxg09JHxxqs-22" target="vDHSL8h8AXeiBuy1sQO2-10" edge="1">
          <mxGeometry width="50" height="50" relative="1" as="geometry">
            <mxPoint x="340" y="-180" as="sourcePoint" />
            <mxPoint x="390" y="-230" as="targetPoint" />
          </mxGeometry>
        </mxCell>
        <mxCell id="vDHSL8h8AXeiBuy1sQO2-12" value="" style="endArrow=classic;html=1;rounded=0;fillColor=#d5e8d4;strokeColor=#82b366;exitX=0.995;exitY=0.429;exitDx=0;exitDy=0;exitPerimeter=0;" parent="1" source="vDHSL8h8AXeiBuy1sQO2-10" target="EL7Et4fL0F2UAVuM8DYT-109" edge="1">
          <mxGeometry width="50" height="50" relative="1" as="geometry">
            <mxPoint x="580" y="-160" as="sourcePoint" />
            <mxPoint x="630" y="-210" as="targetPoint" />
            <Array as="points">
              <mxPoint x="585" y="-222" />
            </Array>
          </mxGeometry>
        </mxCell>
        <mxCell id="YtcUGwGnhU2XsIpbd2w9-1" value="" style="endArrow=classic;html=1;rounded=0;entryX=0.5;entryY=0;entryDx=0;entryDy=0;fillColor=#d5e8d4;strokeColor=#82b366;" parent="1" source="EL7Et4fL0F2UAVuM8DYT-9" target="JB-XBUJDA3JaLd-VkqM5-13" edge="1">
          <mxGeometry width="50" height="50" relative="1" as="geometry">
            <mxPoint x="180" y="-600" as="sourcePoint" />
            <mxPoint x="230" y="-650" as="targetPoint" />
            <Array as="points">
              <mxPoint x="250" y="-665" />
            </Array>
          </mxGeometry>
        </mxCell>
        <mxCell id="YtcUGwGnhU2XsIpbd2w9-2" value="" style="endArrow=classic;html=1;rounded=0;fillColor=#ffe6cc;strokeColor=#d79b00;" parent="1" source="EL7Et4fL0F2UAVuM8DYT-80" target="EL7Et4fL0F2UAVuM8DYT-101" edge="1">
          <mxGeometry width="50" height="50" relative="1" as="geometry">
            <mxPoint x="945.1600000000001" y="-260" as="sourcePoint" />
            <mxPoint x="995.1600000000001" y="-310" as="targetPoint" />
            <Array as="points">
              <mxPoint x="1005.1600000000001" y="-375" />
            </Array>
          </mxGeometry>
        </mxCell>
        <mxCell id="EL7Et4fL0F2UAVuM8DYT-109" value="X_RDK_WanManager.CPEInterface.1.Wan.ActiveLink" style="shape=parallelogram;perimeter=parallelogramPerimeter;whiteSpace=wrap;html=1;fixedSize=1;fillColor=#d5e8d4;strokeColor=#82b366;strokeWidth=3;" parent="1" vertex="1">
          <mxGeometry x="420" y="335" width="330" height="20" as="geometry" />
        </mxCell>
        <mxCell id="uKChVChPocDeN4nDB4ak-1" value="" style="endArrow=classic;html=1;rounded=0;entryX=0.5;entryY=0;entryDx=0;entryDy=0;" parent="1" source="EL7Et4fL0F2UAVuM8DYT-99" target="EL7Et4fL0F2UAVuM8DYT-42" edge="1">
          <mxGeometry width="50" height="50" relative="1" as="geometry">
            <mxPoint x="690" y="560" as="sourcePoint" />
            <mxPoint x="740" y="510" as="targetPoint" />
          </mxGeometry>
        </mxCell>
        <mxCell id="uKChVChPocDeN4nDB4ak-10" value="" style="edgeStyle=orthogonalEdgeStyle;rounded=0;orthogonalLoop=1;jettySize=auto;html=1;" parent="1" source="uKChVChPocDeN4nDB4ak-2" target="uKChVChPocDeN4nDB4ak-8" edge="1">
          <mxGeometry relative="1" as="geometry" />
        </mxCell>
        <mxCell id="uKChVChPocDeN4nDB4ak-2" value="dibbler-client&lt;br&gt;-w /tmp/dibbler_erouter0" style="rounded=0;whiteSpace=wrap;html=1;align=center;strokeWidth=3;" parent="1" vertex="1">
          <mxGeometry x="1220" y="690" width="190" height="45" as="geometry" />
        </mxCell>
        <mxCell id="uKChVChPocDeN4nDB4ak-5" value="" style="edgeStyle=orthogonalEdgeStyle;rounded=0;orthogonalLoop=1;jettySize=auto;html=1;" parent="1" source="uKChVChPocDeN4nDB4ak-3" target="uKChVChPocDeN4nDB4ak-4" edge="1">
          <mxGeometry relative="1" as="geometry" />
        </mxCell>
        <mxCell id="uKChVChPocDeN4nDB4ak-3" value="udhcpc&amp;nbsp;&lt;br&gt;mg0/voip0" style="rounded=0;whiteSpace=wrap;html=1;align=center;strokeWidth=3;" parent="1" vertex="1">
          <mxGeometry x="930.1600000000001" y="690" width="150" height="45" as="geometry" />
        </mxCell>
        <mxCell id="uKChVChPocDeN4nDB4ak-4" value="udhcpc_vlan.script" style="rounded=0;whiteSpace=wrap;html=1;" parent="1" vertex="1">
          <mxGeometry x="930.1600000000001" y="760" width="150" height="30" as="geometry" />
        </mxCell>
        <mxCell id="uKChVChPocDeN4nDB4ak-11" value="" style="edgeStyle=orthogonalEdgeStyle;rounded=0;orthogonalLoop=1;jettySize=auto;html=1;" parent="1" source="uKChVChPocDeN4nDB4ak-6" target="uKChVChPocDeN4nDB4ak-9" edge="1">
          <mxGeometry relative="1" as="geometry" />
        </mxCell>
        <mxCell id="uKChVChPocDeN4nDB4ak-6" value="dibbler-client&lt;br&gt;-w /tmp/dibbler_mg0/voip0" style="rounded=0;whiteSpace=wrap;html=1;align=center;strokeWidth=3;" parent="1" vertex="1">
          <mxGeometry x="1425.1599999999999" y="690" width="184.84" height="45" as="geometry" />
        </mxCell>
        <mxCell id="uKChVChPocDeN4nDB4ak-7" value="" style="endArrow=classic;html=1;rounded=0;fillColor=#d5e8d4;strokeColor=#82b366;entryX=0.5;entryY=0;entryDx=0;entryDy=0;" parent="1" target="uKChVChPocDeN4nDB4ak-2" edge="1">
          <mxGeometry width="50" height="50" relative="1" as="geometry">
            <mxPoint x="350" y="450" as="sourcePoint" />
            <mxPoint x="855" y="750" as="targetPoint" />
            <Array as="points">
              <mxPoint x="710" y="450" />
              <mxPoint x="710" y="670" />
              <mxPoint x="1315" y="670" />
            </Array>
          </mxGeometry>
        </mxCell>
        <mxCell id="uKChVChPocDeN4nDB4ak-16" value="" style="edgeStyle=orthogonalEdgeStyle;rounded=0;orthogonalLoop=1;jettySize=auto;html=1;" parent="1" source="uKChVChPocDeN4nDB4ak-8" target="uKChVChPocDeN4nDB4ak-15" edge="1">
          <mxGeometry relative="1" as="geometry" />
        </mxCell>
        <mxCell id="uKChVChPocDeN4nDB4ak-8" value="client-notify.sh" style="rounded=0;whiteSpace=wrap;html=1;" parent="1" vertex="1">
          <mxGeometry x="1220" y="760" width="190" height="30" as="geometry" />
        </mxCell>
        <mxCell id="uKChVChPocDeN4nDB4ak-9" value="client-notify.sh" style="rounded=0;whiteSpace=wrap;html=1;" parent="1" vertex="1">
          <mxGeometry x="1422.58" y="760" width="190" height="30" as="geometry" />
        </mxCell>
        <mxCell id="uKChVChPocDeN4nDB4ak-13" value="" style="rounded=0;whiteSpace=wrap;html=1;fillColor=#dae8fc;strokeColor=#6c8ebf;strokeWidth=4;" parent="1" vertex="1">
          <mxGeometry x="1210" y="860" width="210" height="60" as="geometry" />
        </mxCell>
        <mxCell id="uKChVChPocDeN4nDB4ak-14" value="p-and-m" style="text;html=1;strokeColor=#6c8ebf;fillColor=#dae8fc;align=center;verticalAlign=middle;whiteSpace=wrap;rounded=0;fontStyle=1;fontSize=15;" parent="1" vertex="1">
          <mxGeometry x="1330" y="860" width="90" height="30" as="geometry" />
        </mxCell>
        <mxCell id="uKChVChPocDeN4nDB4ak-15" value="PIPE" style="shape=hexagon;perimeter=hexagonPerimeter2;whiteSpace=wrap;html=1;fixedSize=1;" parent="1" vertex="1">
          <mxGeometry x="1277.5" y="810" width="75" height="30" as="geometry" />
        </mxCell>
        <mxCell id="uKChVChPocDeN4nDB4ak-17" value="" style="endArrow=classic;html=1;rounded=0;exitX=0.5;exitY=1;exitDx=0;exitDy=0;entryX=0.5;entryY=0;entryDx=0;entryDy=0;" parent="1" source="uKChVChPocDeN4nDB4ak-15" target="uKChVChPocDeN4nDB4ak-13" edge="1">
          <mxGeometry width="50" height="50" relative="1" as="geometry">
            <mxPoint x="970" y="920" as="sourcePoint" />
            <mxPoint x="1020" y="870" as="targetPoint" />
          </mxGeometry>
        </mxCell>
        <mxCell id="uKChVChPocDeN4nDB4ak-20" value="" style="edgeStyle=orthogonalEdgeStyle;rounded=0;orthogonalLoop=1;jettySize=auto;html=1;fillColor=#dae8fc;strokeColor=#6c8ebf;" parent="1" source="uKChVChPocDeN4nDB4ak-13" target="EL7Et4fL0F2UAVuM8DYT-36" edge="1">
          <mxGeometry relative="1" as="geometry">
            <mxPoint x="855" y="800" as="sourcePoint" />
            <mxPoint x="500" y="525" as="targetPoint" />
            <Array as="points">
              <mxPoint x="650" y="890" />
              <mxPoint x="650" y="525" />
            </Array>
          </mxGeometry>
        </mxCell>
        <mxCell id="uKChVChPocDeN4nDB4ak-21" value="&amp;nbsp;NANOMSG&amp;nbsp;" style="edgeLabel;html=1;align=center;verticalAlign=middle;resizable=0;points=[];labelBackgroundColor=#f5f5f5;" parent="uKChVChPocDeN4nDB4ak-20" vertex="1" connectable="0">
          <mxGeometry x="-0.5171" y="-1" relative="1" as="geometry">
            <mxPoint as="offset" />
          </mxGeometry>
        </mxCell>
        <mxCell id="uKChVChPocDeN4nDB4ak-24" value="dhcpv4_config&lt;br style=&quot;border-color: var(--border-color); font-size: 11px;&quot;&gt;&lt;span style=&quot;font-size: 11px; background-color: rgb(213, 232, 212);&quot;&gt;dhcpv6_config&lt;/span&gt;" style="shape=dataStorage;whiteSpace=wrap;html=1;fixedSize=1;fillColor=#d5e8d4;strokeColor=#82b366;size=10;" parent="1" vertex="1">
          <mxGeometry x="335" y="492.5" width="110" height="35" as="geometry" />
        </mxCell>
        <mxCell id="uKChVChPocDeN4nDB4ak-29" value="" style="endArrow=classic;html=1;rounded=0;fillColor=#d5e8d4;strokeColor=#82b366;" parent="1" source="EL7Et4fL0F2UAVuM8DYT-36" target="uKChVChPocDeN4nDB4ak-24" edge="1">
          <mxGeometry width="50" height="50" relative="1" as="geometry">
            <mxPoint x="380" y="600" as="sourcePoint" />
            <mxPoint x="430" y="550" as="targetPoint" />
          </mxGeometry>
        </mxCell>
      </root>
    </mxGraphModel>
  </diagram>
</mxfile>
